fontCallback.success({"glyphs":{"S":{"x_min":71.4375,"x_max":685.359375,"ha":631,"o":"m 685 876 b 499 913 614 887 622 913 b 202 673 382 913 231 820 b 196 626 197 656 196 641 b 402 404 196 504 302 447 b 515 258 465 375 515 341 b 511 206 515 243 514 225 b 320 36 489 94 421 36 b 131 233 202 36 132 94 l 89 229 b 71 6 85 123 82 77 b 299 -13 152 6 186 -13 b 628 255 453 -13 600 113 b 632 306 631 273 632 291 b 445 522 632 430 536 484 b 297 681 397 540 297 586 b 300 711 297 691 297 700 b 477 866 317 795 389 866 b 631 688 604 866 622 780 l 674 697 b 685 876 674 763 681 801 "},"¦":{"x_min":63,"x_max":346,"ha":285,"o":"m 346 936 l 278 936 l 189 433 l 257 433 l 346 936 m 219 223 l 151 223 l 63 -279 l 130 -279 l 219 223 "},"/":{"x_min":0,"x_max":558.328125,"ha":404,"o":"m 558 947 l 501 947 l 0 -29 l 58 -29 l 558 947 "},"₢":{"x_min":92.171875,"x_max":670,"ha":608,"o":"m 331 -22 b 565 148 431 -22 521 55 l 533 158 b 396 41 497 91 447 55 l 433 255 b 532 383 442 298 517 383 b 553 368 540 383 549 381 b 599 338 558 348 575 338 b 651 394 625 338 647 369 b 653 402 653 397 653 400 b 594 448 653 429 632 448 b 449 331 542 448 485 372 l 446 331 l 469 447 l 449 447 b 415 437 439 447 429 443 b 306 401 376 420 361 413 l 307 366 b 324 368 313 368 318 368 b 354 336 340 368 354 361 b 351 318 354 330 353 323 l 304 44 b 210 243 242 66 210 131 b 226 406 210 288 215 344 b 485 763 260 597 360 763 b 614 612 543 763 614 715 b 613 591 614 606 614 598 l 649 594 l 670 811 l 633 808 b 632 797 633 804 633 801 b 618 779 631 783 625 779 b 494 812 599 779 561 812 b 103 387 317 812 149 644 b 92 270 94 345 92 306 b 331 -22 92 93 176 -22 "},"y":{"x_min":18.0625,"x_max":706.953125,"ha":660,"o":"m 277 495 b 229 533 270 520 247 533 b 161 511 200 533 169 511 b 141 537 150 511 141 527 b 151 562 141 545 144 554 b 309 605 201 591 261 605 b 379 506 344 605 359 580 b 434 120 413 363 426 250 l 440 119 l 580 359 b 612 456 609 409 612 433 b 581 554 612 486 581 505 b 634 609 581 584 605 609 b 706 527 669 609 706 576 b 626 336 706 488 687 438 l 362 -97 b 101 -316 276 -238 173 -316 b 18 -261 77 -316 18 -305 b 97 -198 18 -238 30 -198 b 129 -212 108 -198 119 -204 b 161 -225 137 -219 147 -225 b 315 -86 180 -225 258 -179 l 361 -11 b 277 495 337 187 323 288 "},"Á":{"x_min":2.78125,"x_max":925.21875,"ha":926,"o":"m 223 109 l 340 311 b 391 334 350 329 359 334 l 669 334 l 704 100 b 704 86 704 94 704 90 b 637 40 704 56 681 43 l 598 37 b 587 26 593 37 588 33 l 581 0 l 583 -2 b 761 0 633 -1 709 0 b 916 -2 815 0 868 -1 l 919 0 l 925 26 b 913 37 926 33 920 37 l 900 38 b 816 119 847 44 825 65 l 688 872 b 661 913 684 898 680 913 b 606 863 641 913 629 900 l 169 141 b 20 37 116 55 79 41 b 8 26 13 37 9 33 l 2 0 l 4 -2 b 127 0 54 -1 76 0 b 301 -2 181 0 252 -1 l 305 0 l 309 26 b 301 37 311 33 306 37 l 263 40 b 212 76 229 43 212 56 b 223 109 212 86 216 97 m 426 393 b 393 401 404 393 393 394 b 397 411 393 404 394 406 l 598 763 l 601 763 l 658 393 l 426 393 m 550 973 b 613 990 562 973 584 980 l 848 1077 l 758 1140 l 562 1023 b 533 988 543 1011 533 1001 b 550 973 533 977 538 973 "},"g":{"x_min":9.71875,"x_max":717.21875,"ha":663,"o":"m 474 404 b 372 224 474 317 455 224 b 275 391 287 224 275 324 b 383 567 275 491 291 567 b 474 404 443 567 474 498 m 576 404 b 549 519 576 441 568 491 b 614 554 569 538 604 554 b 635 540 626 554 631 547 b 674 516 642 529 650 516 b 717 562 699 516 717 535 b 663 609 717 587 695 609 b 525 551 626 609 574 595 b 389 609 494 587 450 609 b 172 392 233 609 172 504 b 236 229 172 331 198 273 b 161 77 201 192 161 126 b 197 10 161 63 161 31 b 9 -189 123 -29 9 -105 b 276 -330 9 -301 163 -330 b 593 -139 466 -330 593 -276 b 451 19 593 -48 525 -4 b 238 122 340 52 238 55 b 270 206 238 149 258 183 b 365 183 293 192 326 183 b 576 404 486 183 576 266 m 223 -4 b 391 -61 248 -9 346 -40 b 503 -176 469 -97 503 -127 b 333 -284 503 -229 455 -284 b 102 -157 177 -284 102 -233 b 223 -4 102 -90 188 -29 "},"²":{"x_min":160.921875,"x_max":528.96875,"ha":426,"o":"m 260 815 b 303 848 273 815 299 826 b 305 881 306 859 302 869 b 387 922 308 899 327 922 b 447 859 409 922 447 908 b 444 838 447 852 445 845 b 320 681 430 763 392 731 b 160 505 245 630 173 572 l 447 505 b 497 636 459 545 477 594 l 465 643 b 367 549 444 604 410 549 l 255 549 b 370 674 263 593 303 633 b 526 840 459 730 515 776 b 528 865 528 849 528 856 b 399 955 528 933 462 955 b 230 848 290 955 237 884 b 228 843 228 847 228 844 b 260 815 228 827 244 815 "},"ë":{"x_min":115.140625,"x_max":619.3125,"ha":564,"o":"m 231 276 b 597 512 594 347 597 459 b 459 609 597 561 572 609 b 115 197 222 609 115 373 b 285 -13 115 79 151 -13 b 556 150 379 -13 474 44 b 524 172 549 165 541 172 b 335 69 445 91 402 69 b 230 229 273 69 230 102 b 231 276 230 236 230 265 m 499 513 b 241 329 499 388 347 343 b 427 566 290 525 369 566 b 499 513 477 566 499 554 m 491 795 b 555 731 491 761 520 731 b 619 795 590 731 619 761 b 555 859 619 830 590 859 b 491 795 520 859 491 830 m 269 795 b 333 731 269 761 298 731 b 397 795 367 731 397 761 b 333 859 397 830 367 859 b 269 795 298 859 269 830 "},"Î":{"x_min":26.140625,"x_max":552.78125,"ha":389,"o":"m 295 790 l 161 105 b 75 41 154 66 131 47 l 31 37 b 29 -2 26 32 23 10 b 195 0 91 -1 141 0 b 372 -2 248 0 311 -1 b 376 37 376 3 380 30 l 329 42 b 268 105 275 46 259 64 l 402 790 b 488 854 411 829 431 848 l 531 858 b 534 898 537 864 540 886 b 368 896 472 897 422 896 b 191 898 315 896 252 897 b 187 858 187 893 183 865 l 234 854 b 295 790 287 848 302 830 m 443 1126 l 383 1126 b 215 996 330 1079 275 1035 l 227 967 b 395 1053 286 990 336 1015 b 523 967 433 1018 475 992 l 552 996 b 443 1126 509 1033 472 1076 "},"e":{"x_min":115.140625,"x_max":597.09375,"ha":564,"o":"m 231 276 b 597 512 594 347 597 459 b 459 609 597 561 572 609 b 115 197 222 609 115 373 b 285 -13 115 79 151 -13 b 556 150 379 -13 474 44 b 524 172 549 165 541 172 b 335 69 445 91 402 69 b 230 229 273 69 230 102 b 231 276 230 236 230 265 m 499 513 b 241 329 499 388 347 343 b 427 566 290 525 369 566 b 499 513 477 566 499 554 "},"Ã":{"x_min":2.78125,"x_max":925.21875,"ha":926,"o":"m 223 109 l 340 311 b 391 334 350 329 359 334 l 669 334 l 704 100 b 704 86 704 94 704 90 b 637 40 704 56 681 43 l 598 37 b 587 26 593 37 588 33 l 581 0 l 583 -2 b 761 0 633 -1 709 0 b 916 -2 815 0 868 -1 l 919 0 l 925 26 b 913 37 926 33 920 37 l 900 38 b 816 119 847 44 825 65 l 688 872 b 661 913 684 898 680 913 b 606 863 641 913 629 900 l 169 141 b 20 37 116 55 79 41 b 8 26 13 37 9 33 l 2 0 l 4 -2 b 127 0 54 -1 76 0 b 301 -2 181 0 252 -1 l 305 0 l 309 26 b 301 37 311 33 306 37 l 263 40 b 212 76 229 43 212 56 b 223 109 212 86 216 97 m 426 393 b 393 401 404 393 393 394 b 397 411 393 404 394 406 l 598 763 l 601 763 l 658 393 l 426 393 m 756 1036 b 691 1066 730 1036 709 1050 b 598 1105 668 1086 640 1105 b 462 981 538 1105 498 1063 l 494 975 b 576 1041 518 1020 540 1041 b 645 1011 600 1041 623 1026 b 726 975 670 991 695 975 b 873 1100 790 975 838 1016 l 841 1108 b 756 1036 809 1050 787 1036 "},"J":{"x_min":42.625,"x_max":689.078125,"ha":575,"o":"m 604 805 b 689 901 641 830 689 868 b 637 940 689 930 666 940 b 559 851 591 940 565 886 b 354 920 500 879 415 920 b 169 775 219 920 169 830 b 220 713 169 738 185 713 b 266 756 249 713 266 727 b 221 825 266 791 221 811 b 273 863 221 843 242 863 b 440 805 333 863 377 830 b 513 788 459 797 490 788 b 536 793 522 788 530 790 l 537 787 b 451 486 491 687 474 626 l 448 469 l 269 459 l 269 431 l 440 419 l 394 147 b 195 -229 352 -94 285 -229 b 160 -172 173 -229 178 -198 b 95 -140 144 -148 125 -140 b 42 -195 57 -140 42 -175 b 175 -277 42 -245 112 -277 b 511 177 328 -277 455 -154 l 551 420 l 625 427 l 629 462 b 565 500 583 466 565 469 b 604 805 565 536 594 748 "},"»":{"x_min":84.71875,"x_max":656.953125,"ha":644,"o":"m 315 298 b 84 65 244 241 180 175 l 115 31 b 391 265 225 137 293 197 b 425 287 391 265 413 280 l 429 309 b 405 331 420 316 405 331 b 229 565 334 400 294 459 l 183 531 b 315 298 231 422 269 355 m 541 298 b 311 65 470 241 406 175 l 343 31 b 619 265 452 137 520 197 b 652 287 619 265 641 280 l 656 309 b 633 331 648 316 633 331 b 456 565 562 400 522 459 l 409 531 b 541 298 458 422 495 355 "},"₨":{"x_min":22.21875,"x_max":1098.609375,"ha":1090,"o":"m 694 179 l 672 0 b 702 3 684 3 695 3 b 726 0 711 3 718 3 b 838 -11 756 -7 794 -11 b 1059 144 909 -11 1038 19 b 1062 172 1061 154 1062 163 b 905 329 1062 252 988 287 b 822 408 851 355 822 369 b 823 426 822 413 822 419 b 944 519 837 497 895 519 b 1058 370 970 519 1044 504 l 1087 372 l 1098 522 b 950 555 1076 536 1013 555 b 743 406 850 555 758 492 b 740 373 741 394 740 383 b 861 251 740 306 787 284 b 972 136 943 212 972 180 b 970 116 972 130 972 122 b 841 23 958 52 888 23 b 748 59 794 23 759 47 b 723 155 729 84 723 124 b 725 180 723 165 723 173 l 694 179 m 554 598 b 494 467 545 545 522 502 b 337 404 459 424 422 404 l 304 404 l 369 773 b 445 783 400 780 405 783 b 559 659 502 783 559 756 b 554 598 559 641 558 620 m 665 601 b 668 645 666 616 668 631 b 633 755 668 688 656 724 b 440 819 588 812 511 819 b 180 804 308 819 206 811 l 176 780 b 184 772 175 774 177 772 l 223 774 b 231 776 225 776 227 776 b 261 745 254 776 261 765 b 259 719 261 737 261 729 l 147 90 b 69 35 141 56 120 35 l 37 35 b 26 25 30 35 27 31 l 22 2 l 23 0 b 184 2 23 0 140 2 b 343 0 233 2 343 0 l 344 2 l 348 26 b 340 36 350 31 345 36 l 308 36 b 247 76 265 36 247 48 b 248 91 247 80 248 86 l 295 355 b 383 340 380 355 380 348 l 458 99 b 583 -6 475 40 518 -6 b 634 0 601 -6 622 -3 l 634 27 b 626 26 631 26 629 26 b 547 123 584 26 561 72 l 470 379 b 665 601 523 398 640 467 "},"©":{"x_min":47.21875,"x_max":831.953125,"ha":879,"o":"m 440 773 b 788 425 633 773 788 618 b 440 76 788 231 631 76 b 90 425 245 76 90 233 b 440 773 90 618 245 773 m 440 31 b 831 425 656 31 831 208 b 440 816 831 641 656 816 b 47 425 223 816 47 641 b 440 31 47 209 222 31 m 606 301 l 577 320 b 451 250 562 298 522 250 b 311 423 356 250 311 330 b 444 604 311 569 393 604 b 565 500 545 604 554 561 l 602 505 l 586 613 b 443 633 538 613 540 633 b 233 426 312 633 233 527 b 447 212 233 315 313 212 b 606 301 523 212 579 258 "},"ò":{"x_min":108.703125,"x_max":646.203125,"ha":621,"o":"m 494 931 b 473 934 489 933 480 934 b 376 902 426 934 390 911 l 371 887 l 498 736 b 533 708 517 715 525 708 b 557 723 544 708 555 716 b 555 756 558 733 560 743 l 494 931 m 108 225 b 303 -13 108 151 126 -13 b 430 12 347 -13 389 -8 b 646 384 551 72 646 219 b 450 609 646 484 621 609 b 108 225 218 609 108 391 m 223 236 b 425 563 223 361 267 563 b 505 501 467 563 485 540 b 530 375 522 465 530 416 b 472 122 530 319 518 202 b 337 34 439 63 394 34 b 223 236 297 34 223 90 "},"^":{"x_min":240.28125,"x_max":648.609375,"ha":719,"o":"m 504 823 l 587 481 l 648 481 l 548 902 l 490 902 l 240 481 l 301 481 l 504 823 "},"«":{"x_min":125,"x_max":697.21875,"ha":644,"o":"m 466 298 b 697 531 537 355 601 422 l 666 565 b 390 331 556 459 488 400 b 356 309 390 331 368 316 l 352 287 b 376 265 361 280 376 265 b 552 31 447 197 487 137 l 598 65 b 466 298 550 175 512 241 m 240 298 b 470 531 311 355 375 422 l 438 565 b 162 331 329 459 261 400 b 129 309 162 331 140 316 l 125 287 b 148 265 133 280 148 265 b 325 31 219 197 259 137 l 372 65 b 240 298 323 175 286 241 "},"D":{"x_min":22.21875,"x_max":962.5,"ha":926,"o":"m 268 101 l 404 797 b 526 851 413 845 461 851 b 837 519 758 851 837 693 b 825 394 837 477 831 434 b 402 44 769 113 590 44 b 265 83 291 44 265 52 b 268 101 265 88 266 94 m 26 25 l 22 0 l 25 -2 b 194 0 87 -1 140 0 b 434 -2 245 0 297 -2 b 954 427 623 -2 887 86 b 962 520 959 459 962 490 b 586 898 962 734 809 898 b 368 895 501 898 422 895 b 200 898 316 895 262 897 l 195 895 l 191 869 b 201 858 190 862 194 858 l 237 855 b 298 818 280 851 298 845 b 295 794 298 811 297 802 l 161 102 b 79 40 151 58 126 43 l 38 37 b 26 25 33 37 27 31 "},"ÿ":{"x_min":17.9375,"x_max":706.828125,"ha":660,"o":"m 277 495 b 229 533 270 520 247 533 b 161 511 199 533 169 511 b 141 537 149 511 141 527 b 151 562 141 545 144 554 b 309 605 201 591 261 605 b 379 506 344 605 359 580 b 434 120 413 363 426 250 l 440 119 l 580 359 b 612 456 609 409 612 433 b 581 554 612 486 581 505 b 634 609 581 584 605 609 b 706 527 669 609 706 576 b 626 336 706 488 687 438 l 362 -97 b 101 -316 276 -238 173 -316 b 17 -261 77 -316 17 -305 b 97 -198 17 -238 30 -198 b 129 -212 108 -198 119 -204 b 161 -225 137 -219 147 -225 b 315 -86 180 -225 258 -179 l 361 -11 b 277 495 337 187 323 288 m 551 795 b 615 731 551 761 580 731 b 679 795 649 731 679 761 b 615 859 679 830 649 859 b 551 795 580 859 551 830 m 329 795 b 392 731 329 761 358 731 b 456 795 427 731 456 761 b 392 859 456 830 427 859 b 329 795 358 859 329 830 "},"í":{"x_min":149,"x_max":514,"ha":383,"o":"m 340 444 b 368 575 353 498 368 551 b 340 605 368 594 358 605 b 168 587 296 605 233 595 b 169 548 158 576 161 561 l 225 544 b 250 516 241 543 250 530 b 237 445 250 502 246 484 l 172 159 b 149 31 162 115 149 58 b 205 -13 149 5 164 -13 b 398 115 272 -13 334 33 b 366 138 394 127 386 138 b 276 69 330 97 290 69 b 262 93 265 69 262 76 b 278 172 262 105 269 136 l 340 444 m 423 944 l 285 779 b 261 740 269 761 264 755 b 276 722 258 730 266 722 b 323 748 286 722 298 727 l 514 900 l 512 915 b 443 947 487 945 451 947 b 423 944 436 947 427 945 "},"w":{"x_min":115.28125,"x_max":979.171875,"ha":938,"o":"m 261 394 l 290 18 b 318 -16 291 0 306 -16 b 363 19 331 -16 348 -5 l 561 362 l 644 12 b 670 -16 647 -4 658 -16 b 713 13 684 -16 701 -5 l 897 322 b 979 529 955 420 979 490 b 909 609 979 576 950 609 b 859 562 880 609 859 593 b 895 461 859 512 895 491 b 856 345 895 440 887 400 l 715 109 l 702 179 l 638 447 b 594 481 636 465 622 481 b 561 451 583 481 570 466 l 412 190 l 377 130 l 375 194 l 352 448 b 338 579 347 495 347 554 b 301 609 331 597 322 609 b 115 443 244 609 161 575 b 152 423 123 431 138 423 b 230 526 179 473 213 526 b 261 394 252 526 251 502 "},"$":{"x_min":78.171875,"x_max":635.109375,"ha":608,"o":"m 365 473 b 269 607 317 498 257 542 b 419 749 285 688 351 739 l 365 473 m 387 346 b 489 175 440 325 510 285 b 326 30 468 74 382 38 l 387 346 m 128 13 b 269 -17 155 13 194 -13 l 251 -113 l 299 -113 l 317 -17 b 597 216 542 -4 587 170 b 408 453 624 356 482 423 l 467 751 b 583 603 542 742 574 694 l 586 578 l 624 584 b 635 783 625 652 625 720 b 475 792 599 777 543 790 l 490 870 l 443 870 l 428 792 b 179 602 333 783 201 722 b 344 366 153 464 269 402 l 279 28 b 133 206 185 39 139 120 l 96 202 b 78 -1 92 124 87 49 b 128 13 107 -1 107 13 "},"\\":{"x_min":186,"x_max":431.828125,"ha":446,"o":"m 247 969 l 186 969 l 370 -66 l 431 -66 l 247 969 "},"Ì":{"x_min":26.140625,"x_max":570.828125,"ha":389,"o":"m 295 790 l 161 105 b 75 41 154 66 131 47 l 31 37 b 29 -2 26 31 23 9 b 195 0 91 -1 141 0 b 372 -2 248 0 311 -1 b 376 37 376 2 380 30 l 329 41 b 268 105 275 45 259 63 l 402 790 b 488 854 411 829 431 848 l 531 858 b 534 898 537 863 540 886 b 368 895 472 897 422 895 b 191 898 315 895 252 897 b 187 858 187 893 183 865 l 234 854 b 295 790 287 848 302 830 m 570 993 b 555 1016 570 1000 565 1008 l 413 1133 l 293 1070 l 488 983 b 544 966 511 973 530 966 b 570 993 565 966 570 984 "},"µ":{"x_min":9.984375,"x_max":718.328125,"ha":674,"o":"m 187 495 l 118 186 b 86 -11 100 105 96 34 b 9 -254 64 -102 9 -202 b 64 -325 9 -300 46 -325 b 146 -181 96 -325 146 -301 b 144 -98 146 -155 144 -127 b 154 5 144 -63 146 -29 b 173 18 155 12 165 18 b 232 -13 184 0 207 -13 b 508 216 340 -13 409 72 l 512 213 l 497 159 b 473 31 484 115 473 58 b 525 -13 473 5 483 -13 b 718 115 591 -13 654 33 b 686 138 714 127 705 138 b 596 69 650 97 609 69 b 582 93 586 69 582 76 b 597 172 582 105 589 136 l 675 488 b 693 572 679 512 693 555 b 634 609 693 595 679 609 b 571 495 582 609 584 548 l 530 343 b 286 55 428 168 351 55 b 226 204 204 55 209 131 l 291 488 b 309 572 297 513 309 555 b 251 609 309 595 296 609 b 187 495 198 609 200 548 "},"Ç":{"x_min":122.21875,"x_max":930.5625,"ha":856,"o":"m 461 -133 b 498 -168 487 -133 498 -147 b 415 -237 498 -209 465 -237 b 338 -218 387 -237 373 -231 b 316 -254 326 -227 320 -237 b 415 -277 348 -269 370 -277 b 586 -158 498 -277 586 -233 b 504 -88 586 -115 552 -88 b 466 -93 491 -88 477 -90 l 513 -12 b 844 173 627 1 743 63 b 818 194 840 186 833 194 b 479 43 702 86 602 43 b 241 345 311 43 241 184 b 254 463 241 384 245 423 b 626 862 309 745 520 862 b 877 630 811 862 866 750 l 918 636 b 930 851 919 708 922 776 b 651 913 855 855 815 913 b 133 437 430 913 186 711 b 122 334 126 402 122 368 b 463 -13 122 150 225 -12 l 390 -133 l 397 -141 b 461 -133 420 -134 434 -133 "},"-":{"x_min":107,"x_max":484.78125,"ha":463,"o":"m 438 327 b 484 377 457 327 482 362 l 484 386 b 469 402 484 395 480 402 l 151 402 b 108 351 136 402 112 373 b 107 347 108 350 107 347 b 123 327 107 336 113 327 l 438 327 "},"Q":{"x_min":120.921875,"x_max":980.65625,"ha":928,"o":"m 144 -212 l 190 -240 b 304 -158 229 -176 283 -158 b 659 -290 427 -158 486 -290 b 873 -176 743 -290 807 -253 l 854 -159 b 727 -210 818 -197 766 -210 b 377 -96 611 -210 525 -96 b 351 -99 369 -96 361 -98 b 552 -5 432 -45 507 -16 b 970 457 762 34 922 214 b 980 558 977 491 980 526 b 632 914 980 775 834 914 b 132 430 394 914 184 703 b 120 325 123 393 120 358 b 408 -10 120 132 237 8 b 144 -212 302 -63 201 -145 m 605 866 b 857 569 755 866 857 766 b 843 430 857 526 852 480 b 495 33 794 182 648 33 b 247 337 359 33 247 143 b 259 454 247 373 251 412 b 605 866 315 744 484 866 "},"M":{"x_min":19.4375,"x_max":1216.671875,"ha":1117,"o":"m 909 120 b 850 40 905 84 887 43 l 813 37 b 800 26 808 37 801 33 l 794 0 l 797 -2 b 940 0 861 -1 901 0 b 1090 -2 980 0 1027 -1 l 1093 0 l 1098 26 b 1086 37 1100 33 1094 36 l 1050 40 b 1008 88 1016 41 1008 61 b 1011 120 1008 98 1009 109 l 1095 797 b 1158 855 1100 833 1118 851 l 1194 858 b 1211 868 1198 858 1209 859 l 1216 895 l 1213 898 l 1036 898 l 615 191 b 600 172 606 177 602 172 b 593 190 595 172 594 177 l 456 897 l 259 898 l 256 895 l 251 868 b 262 858 250 862 252 858 l 300 855 b 344 823 331 852 344 844 b 340 797 344 816 343 806 l 144 119 b 75 40 134 81 116 43 l 38 37 b 25 26 30 37 26 33 l 19 0 l 22 -2 b 140 0 62 -1 108 0 b 262 -2 172 0 223 -1 l 266 0 l 270 26 b 259 37 272 33 266 37 l 226 40 b 188 81 198 41 188 58 b 195 119 188 93 191 105 l 370 727 l 373 727 l 508 6 b 526 -8 511 -2 518 -8 b 547 6 533 -8 540 -4 l 990 741 l 993 741 l 909 120 "},"C":{"x_min":122.21875,"x_max":930.5625,"ha":856,"o":"m 469 -13 b 844 173 598 -13 730 50 b 818 194 840 186 833 194 b 479 43 702 86 602 43 b 241 345 311 43 241 184 b 254 463 241 384 245 423 b 626 862 309 745 520 862 b 877 630 811 862 866 750 l 918 636 b 930 851 919 708 922 776 b 651 913 855 855 815 913 b 133 437 430 913 186 711 b 122 334 126 402 122 368 b 469 -13 122 148 226 -13 "},"!":{"x_min":120.828125,"x_max":412.5,"ha":315,"o":"m 350 923 b 256 822 319 923 270 897 b 247 708 248 776 247 743 b 248 647 247 688 248 669 b 244 552 248 620 247 590 b 219 291 236 445 222 319 l 219 288 b 236 273 219 280 222 273 b 261 301 250 273 256 286 b 326 552 265 320 283 404 b 409 822 362 672 394 731 b 412 848 412 831 412 840 b 350 923 412 898 381 923 m 122 55 b 120 43 122 51 120 47 b 183 -18 120 8 147 -18 b 270 55 225 -18 263 15 b 272 68 270 59 272 63 b 209 129 272 102 245 129 b 122 55 169 129 130 95 "},"ç":{"x_min":115.03125,"x_max":587.890625,"ha":540,"o":"m 293 -127 b 330 -162 319 -127 330 -141 b 247 -231 330 -204 297 -231 b 170 -212 219 -231 205 -226 b 148 -248 158 -222 152 -231 b 247 -272 180 -263 202 -272 b 418 -152 330 -272 418 -227 b 336 -83 418 -109 384 -83 b 298 -87 323 -83 309 -84 l 344 -9 b 521 113 411 4 457 44 b 490 140 517 127 503 140 b 333 62 436 79 373 62 b 263 100 309 62 283 73 b 229 237 242 126 229 152 b 433 566 229 444 326 566 b 492 511 453 566 492 556 b 485 484 492 502 489 491 b 478 455 480 477 478 463 b 515 411 478 433 492 411 b 587 473 553 411 587 426 b 429 609 587 527 561 609 b 115 206 269 609 115 437 b 158 52 115 159 124 97 b 290 -13 185 12 233 -13 l 293 -13 l 222 -127 l 229 -136 b 293 -127 252 -129 266 -127 "},"È":{"x_min":15.28125,"x_max":768.0625,"ha":731,"o":"m 768 897 b 762 901 768 899 766 901 b 698 895 738 897 730 895 l 361 895 b 193 898 309 895 255 897 l 190 895 l 184 867 b 193 858 183 863 183 858 l 231 855 b 290 812 272 851 290 840 b 288 792 290 805 290 799 l 154 99 b 73 40 145 60 126 44 l 33 37 b 20 27 25 37 22 31 l 15 0 l 18 -3 b 187 0 80 -1 136 0 l 473 0 b 643 -3 537 0 643 -3 l 737 228 l 697 235 b 481 53 651 135 583 53 l 301 53 b 258 84 276 53 258 59 b 261 99 258 88 259 94 l 329 448 l 498 448 b 555 406 538 448 555 437 b 555 395 555 402 555 399 l 552 360 b 559 349 551 356 552 349 l 588 349 l 595 353 b 613 474 601 409 608 447 b 643 599 618 502 627 544 l 638 605 l 609 605 b 597 594 604 605 598 599 l 587 559 b 509 501 575 520 555 501 l 340 501 l 395 792 b 454 840 402 826 422 840 l 593 840 b 718 688 693 840 706 784 l 756 695 b 768 897 762 752 768 885 m 662 995 b 647 1019 662 1002 656 1010 l 505 1135 l 384 1073 l 580 985 b 636 969 602 976 622 969 b 662 995 656 969 662 987 "},"{":{"x_min":113.890625,"x_max":513.890625,"ha":379,"o":"m 387 787 b 431 911 398 844 412 886 b 509 968 454 941 480 959 l 513 987 b 351 937 440 986 383 969 b 284 776 319 905 297 851 l 237 513 b 115 345 225 444 197 368 l 113 338 b 183 233 166 325 183 286 b 176 168 183 212 180 191 l 133 -75 b 123 -170 127 -112 123 -143 b 140 -251 123 -205 129 -231 b 286 -301 158 -283 211 -300 l 288 -281 b 231 -225 276 -277 251 -272 b 225 -169 227 -211 225 -191 b 231 -95 225 -148 227 -123 l 272 131 b 283 229 279 170 283 202 b 215 343 283 284 265 319 b 343 536 288 372 319 409 l 387 787 "},"X":{"x_min":4.140625,"x_max":1016.84375,"ha":872,"o":"m 186 867 b 205 857 184 861 193 860 b 305 762 227 853 266 842 l 441 477 b 452 444 448 465 452 454 b 452 436 452 441 452 438 b 433 404 451 427 443 415 l 199 144 b 26 37 162 102 104 41 b 9 27 18 37 11 34 l 4 0 l 4 -2 b 116 0 44 -1 77 0 b 266 -2 169 0 204 -1 l 270 0 l 276 27 b 269 37 276 31 276 36 l 244 40 b 211 61 219 41 211 50 b 237 106 211 72 222 88 l 462 358 b 486 377 473 369 483 377 b 502 362 491 377 497 373 l 627 101 b 643 59 636 81 643 68 b 598 40 643 47 630 43 l 571 37 b 561 27 565 37 562 33 l 555 0 l 559 -2 b 726 0 622 -1 696 0 b 866 -2 757 0 812 -1 l 869 0 l 875 27 b 866 37 875 31 873 37 b 746 141 808 41 772 87 l 597 433 b 583 470 589 447 583 459 b 584 479 583 473 583 476 b 611 520 587 491 596 502 l 833 766 b 997 858 879 816 916 855 b 1011 868 1008 858 1011 863 l 1016 895 l 1014 898 b 883 895 959 896 914 895 b 751 898 852 895 805 896 l 748 895 l 743 867 b 751 858 741 861 746 858 l 790 855 b 814 840 807 854 814 848 b 786 794 814 829 802 813 l 566 551 b 545 534 557 540 550 534 b 533 550 543 534 539 540 l 422 794 b 406 834 413 811 406 825 b 440 855 406 845 416 852 l 484 858 b 493 868 487 858 491 861 l 497 894 b 495 898 495 894 495 898 b 333 895 433 896 365 895 b 195 898 301 895 248 896 l 191 893 l 186 867 "},"ô":{"x_min":108.59375,"x_max":646.09375,"ha":621,"o":"m 501 906 l 432 906 b 253 727 379 843 314 783 l 276 708 b 451 833 337 745 389 780 b 572 708 487 783 526 748 l 605 727 b 501 906 566 783 529 841 m 108 225 b 303 -13 108 151 126 -13 b 430 12 347 -13 389 -8 b 646 384 551 72 646 219 b 450 609 646 484 621 609 b 108 225 218 609 108 391 m 223 236 b 425 563 223 361 266 563 b 505 501 466 563 484 540 b 530 375 522 465 530 416 b 472 122 530 319 518 202 b 337 34 439 63 394 34 b 223 236 297 34 223 90 "},"¼":{"x_min":87.5,"x_max":956.953125,"ha":917,"o":"m 326 794 b 334 735 344 794 344 781 l 293 524 b 241 472 288 493 263 472 l 191 472 b 180 467 186 472 181 469 l 175 438 b 311 439 175 438 258 439 b 430 438 356 439 430 438 l 436 465 b 429 472 436 471 433 472 l 390 472 b 365 524 370 472 359 493 l 434 888 l 412 888 b 236 810 345 849 306 833 l 241 772 b 326 794 263 781 308 794 m 840 218 b 825 232 841 230 833 232 b 783 203 815 232 795 215 b 768 178 779 198 770 189 l 748 72 l 622 72 b 847 330 662 119 766 233 l 809 344 l 536 40 l 538 25 l 738 25 l 725 -45 b 687 -79 718 -74 712 -79 l 666 -79 b 659 -84 661 -79 659 -83 l 654 -114 b 738 -112 654 -114 705 -112 b 836 -114 776 -112 836 -114 l 840 -86 b 834 -79 840 -83 840 -79 l 812 -79 b 788 -44 787 -79 783 -70 l 802 25 l 873 25 l 887 72 l 811 72 l 840 218 m 901 835 l 87 -74 l 144 -86 l 956 824 l 901 835 "},"#":{"x_min":77.78125,"x_max":669.453125,"ha":608,"o":"m 426 320 l 272 320 l 323 473 l 476 473 l 426 320 m 522 473 l 647 473 l 669 541 l 544 541 l 623 777 l 577 777 l 498 541 l 345 541 l 425 777 l 377 777 l 300 541 l 173 541 l 151 473 l 276 473 l 226 320 l 100 320 l 77 254 l 202 254 l 125 18 l 170 18 l 250 254 l 402 254 l 323 18 l 369 18 l 450 254 l 575 254 l 595 320 l 470 320 l 522 473 "},"Ê":{"x_min":15.25,"x_max":768.0625,"ha":731,"o":"m 768 897 b 762 901 768 900 766 901 b 698 896 738 897 730 896 l 361 896 b 193 898 309 896 255 897 l 190 896 l 184 868 b 193 858 183 864 183 858 l 231 855 b 290 812 272 851 290 840 b 288 793 290 805 290 800 l 154 99 b 73 40 145 60 126 44 l 33 37 b 20 27 24 37 22 31 l 15 0 l 18 -3 b 187 0 80 -1 136 0 l 473 0 b 643 -3 537 0 643 -3 l 737 229 l 697 236 b 481 53 651 135 583 53 l 301 53 b 258 84 276 53 258 59 b 261 99 258 88 259 94 l 329 448 l 498 448 b 555 406 538 448 555 437 b 555 395 555 402 555 400 l 552 361 b 559 349 551 356 552 349 l 588 349 l 595 354 b 613 475 601 409 608 447 b 643 600 618 502 627 544 l 638 605 l 609 605 b 597 594 604 605 598 600 l 587 559 b 509 501 574 520 555 501 l 340 501 l 395 793 b 454 840 402 826 422 840 l 593 840 b 718 689 693 840 706 784 l 756 696 b 768 897 762 752 768 886 m 616 1126 l 556 1126 b 388 996 504 1079 448 1035 l 401 967 b 569 1053 459 990 509 1015 b 697 967 606 1018 648 992 l 726 996 b 616 1126 683 1033 645 1076 "},")":{"x_min":31.9375,"x_max":470.828125,"ha":433,"o":"m 440 700 b 276 983 409 809 355 901 l 247 959 b 356 684 325 850 347 744 b 369 540 365 637 369 590 b 351 350 369 479 362 415 b 238 16 330 230 291 120 b 31 -258 208 -40 150 -147 l 52 -281 b 316 0 193 -177 273 -62 b 459 350 388 109 436 223 b 470 486 466 395 470 440 b 440 700 470 558 461 630 "},"Å":{"x_min":2.78125,"x_max":925.21875,"ha":926,"o":"m 426 393 b 393 401 404 393 393 394 b 397 411 393 404 394 406 l 598 763 l 601 763 l 658 393 l 426 393 m 543 995 b 618 881 531 938 566 893 b 606 863 615 876 611 870 l 169 141 b 20 37 116 55 79 41 b 8 26 13 37 9 33 l 2 0 l 4 -2 b 127 0 54 -1 76 0 b 301 -2 181 0 252 -1 l 305 0 l 309 26 b 301 37 311 33 306 37 l 263 40 b 212 76 229 43 212 56 b 223 109 212 86 216 97 l 340 311 b 391 334 350 329 359 334 l 669 334 l 704 100 b 704 86 704 94 704 90 b 637 40 704 56 681 43 l 598 37 b 587 26 593 37 588 33 l 581 0 l 583 -2 b 761 0 633 -1 709 0 b 916 -2 815 0 868 -1 l 919 0 l 925 26 b 913 37 926 33 920 37 l 900 38 b 816 119 847 44 825 65 l 688 872 b 684 887 687 877 686 883 b 784 995 734 904 775 947 b 687 1111 798 1061 751 1111 b 543 995 623 1111 556 1059 m 680 1073 b 733 995 722 1073 743 1038 b 648 918 726 956 691 918 b 594 995 605 918 587 956 b 680 1073 604 1037 637 1073 "},"ø":{"x_min":87.046875,"x_max":698.84375,"ha":621,"o":"m 527 418 b 530 375 529 404 530 389 b 472 122 530 319 518 202 b 337 34 438 63 394 34 b 259 88 315 34 283 50 l 527 418 m 511 489 l 233 148 b 223 236 226 173 223 202 b 424 564 223 361 266 564 b 505 501 466 564 484 540 b 511 489 506 497 508 493 m 653 662 l 577 570 b 449 609 548 594 508 609 b 107 225 217 609 107 391 b 153 52 107 182 113 107 l 87 -29 l 132 -66 l 196 12 b 302 -13 223 -4 258 -13 b 430 12 347 -13 388 -8 b 646 384 551 72 646 219 b 615 526 646 432 639 484 l 698 629 l 653 662 "},"â":{"x_min":108.625,"x_max":683.40625,"ha":675,"o":"m 500 304 b 280 62 432 179 325 62 b 219 195 233 62 219 118 b 462 566 219 343 335 566 b 548 540 491 566 522 556 b 500 304 548 540 534 393 m 569 601 b 458 609 532 605 514 609 b 108 173 310 609 108 391 b 243 -13 108 95 126 -13 b 478 186 316 -13 394 62 l 480 183 l 462 125 b 448 48 453 93 448 65 b 505 -13 448 22 458 -13 b 683 120 591 -13 647 41 b 651 143 675 131 669 143 b 573 69 613 91 587 69 b 557 88 569 69 557 72 b 570 166 557 101 565 140 l 666 598 b 569 601 633 598 597 594 m 529 906 l 460 906 b 280 727 407 843 341 783 l 304 708 b 478 833 365 745 416 780 b 600 708 515 783 554 748 l 633 727 b 529 906 594 783 557 841 "},"}":{"x_min":-12.5,"x_max":386.109375,"ha":379,"o":"m 113 -101 b 69 -225 102 -158 87 -200 b -8 -281 47 -255 20 -273 l -12 -301 b 150 -251 59 -300 116 -283 b 216 -90 180 -219 202 -165 l 262 173 b 386 340 275 241 304 318 l 386 347 b 318 452 334 361 318 400 b 323 519 318 472 319 494 l 366 761 b 376 856 372 798 376 829 b 361 937 376 891 370 918 b 215 987 343 969 288 986 l 211 968 b 268 911 225 963 250 958 b 276 856 273 897 276 879 b 268 781 276 836 273 811 l 229 554 b 218 456 222 516 218 484 b 286 344 218 401 234 366 b 156 150 212 315 179 276 l 113 -101 "},"Ä":{"x_min":2.78125,"x_max":925.21875,"ha":926,"o":"m 223 109 l 340 311 b 391 334 350 329 359 334 l 669 334 l 704 100 b 704 86 704 94 704 90 b 637 40 704 56 681 43 l 598 37 b 587 26 593 37 588 33 l 581 0 l 583 -2 b 761 0 633 -1 709 0 b 916 -2 815 0 868 -1 l 919 0 l 925 26 b 913 37 926 33 920 37 l 900 38 b 816 119 847 44 825 65 l 688 872 b 661 913 684 898 680 913 b 606 863 641 913 629 900 l 169 141 b 20 37 116 55 79 41 b 8 26 13 37 9 33 l 2 0 l 4 -2 b 127 0 54 -1 76 0 b 301 -2 181 0 252 -1 l 305 0 l 309 26 b 301 37 311 33 306 37 l 263 40 b 212 76 229 43 212 56 b 223 109 212 86 216 97 m 426 393 b 393 401 404 393 393 394 b 397 411 393 404 394 406 l 598 763 l 601 763 l 658 393 l 426 393 m 763 980 b 830 913 763 944 794 913 b 897 980 866 913 897 944 b 830 1047 897 1016 866 1047 b 763 980 794 1047 763 1016 m 434 980 b 501 913 434 944 465 913 b 568 980 537 913 568 944 b 501 1047 568 1016 537 1047 b 434 980 465 1047 434 1016 "},"¸":{"x_min":235.109375,"x_max":507.34375,"ha":751,"o":"m 382 -111 b 430 -147 410 -111 430 -125 b 332 -216 430 -191 379 -216 b 254 -203 300 -216 290 -215 l 235 -228 b 333 -251 267 -243 290 -251 b 507 -132 426 -251 507 -203 b 425 -66 507 -87 469 -66 b 389 -71 412 -66 400 -68 l 440 9 l 393 9 l 311 -111 l 318 -119 b 382 -111 342 -114 354 -111 "},"a":{"x_min":108.625,"x_max":683.40625,"ha":675,"o":"m 500 304 b 280 62 432 179 325 62 b 219 195 233 62 219 118 b 462 566 219 343 335 566 b 548 540 491 566 522 556 b 500 304 548 540 534 393 m 569 601 b 458 609 532 605 514 609 b 108 173 310 609 108 391 b 243 -13 108 95 126 -13 b 478 186 316 -13 394 62 l 480 183 l 462 125 b 448 48 453 93 448 65 b 505 -13 448 22 458 -13 b 683 120 591 -13 647 41 b 651 143 675 131 669 143 b 573 69 613 91 587 69 b 557 88 569 69 557 72 b 570 166 557 101 565 140 l 666 598 b 569 601 633 598 597 594 "},"=":{"x_min":126.390625,"x_max":719.453125,"ha":732,"o":"m 719 441 l 169 441 l 156 373 l 706 373 l 719 441 m 688 268 l 138 268 l 126 200 l 676 200 l 688 268 "},"N":{"x_min":13.890625,"x_max":1095.828125,"ha":925,"o":"m 954 773 b 1041 855 962 815 988 851 l 1079 858 b 1091 869 1083 858 1090 862 l 1095 895 l 1094 898 b 948 895 1031 897 980 895 b 795 898 915 895 858 897 l 793 895 l 787 869 b 804 858 786 862 797 858 l 837 855 b 895 794 881 851 895 825 b 894 773 895 787 894 780 l 791 247 b 775 205 786 220 783 205 b 722 281 763 205 751 230 l 384 898 l 204 898 l 198 895 l 194 869 b 213 858 193 862 204 859 b 287 763 256 854 286 800 l 162 122 b 73 40 154 84 129 44 l 38 37 b 19 25 25 36 20 31 l 13 0 l 16 -2 b 169 0 79 -1 136 0 b 313 -2 202 0 251 -1 l 316 0 l 322 26 b 313 37 323 33 319 37 l 279 40 b 219 100 236 43 219 68 b 222 122 219 106 220 113 l 316 609 b 343 677 326 656 333 677 b 380 631 351 677 362 662 l 726 19 b 773 -13 736 -1 751 -13 b 809 29 791 -13 804 2 l 954 773 "},"ú":{"x_min":117.546875,"x_max":745.328125,"ha":724,"o":"m 589 925 l 450 759 b 427 720 435 741 430 736 b 442 702 424 711 432 702 b 489 729 452 702 464 708 l 680 880 l 678 895 b 609 927 653 926 617 927 b 589 925 602 927 593 926 m 702 488 b 720 572 706 512 720 555 b 661 609 720 595 706 609 b 598 495 609 609 611 548 l 557 343 b 317 69 455 168 386 69 b 275 120 292 69 275 83 b 288 209 275 143 278 172 l 348 436 b 377 563 359 480 377 537 b 327 609 377 590 368 609 b 117 480 260 609 181 562 b 149 456 121 468 130 456 b 245 526 185 498 231 526 b 259 502 255 526 259 519 b 241 423 259 490 249 459 l 180 190 b 166 97 170 154 166 123 b 259 -13 166 18 210 -13 b 535 216 367 -13 436 72 l 539 213 l 524 159 b 500 31 511 115 500 58 b 552 -13 500 5 510 -13 b 745 115 618 -13 681 33 b 713 138 741 127 732 138 b 623 69 677 97 636 69 b 609 93 613 69 609 76 b 624 172 609 105 616 136 l 702 488 "},"2":{"x_min":79.390625,"x_max":657.265625,"ha":608,"o":"m 200 615 b 198 605 198 612 198 609 b 243 563 198 581 216 563 b 303 613 265 563 296 577 b 303 644 305 625 304 634 b 304 676 303 654 301 665 b 441 759 309 709 346 759 b 548 630 483 759 548 720 b 390 370 548 513 468 437 l 272 269 b 79 0 118 136 93 77 l 508 0 l 571 175 l 536 180 b 425 80 501 104 472 80 l 190 80 b 321 244 203 143 314 237 l 478 372 b 657 641 546 427 657 519 b 460 802 657 761 554 802 b 200 615 314 802 215 694 "},"ü":{"x_min":117.546875,"x_max":745.328125,"ha":724,"o":"m 702 488 b 720 572 706 512 720 555 b 661 609 720 595 706 609 b 598 495 609 609 611 548 l 557 343 b 317 69 455 168 386 69 b 275 120 292 69 275 83 b 288 209 275 143 278 172 l 348 436 b 377 563 359 480 377 537 b 327 609 377 590 368 609 b 117 480 260 609 181 562 b 149 456 121 468 130 456 b 245 526 185 498 231 526 b 259 502 255 526 259 519 b 241 423 259 490 249 459 l 180 190 b 166 97 170 154 166 123 b 259 -13 166 18 210 -13 b 535 216 367 -13 436 72 l 539 213 l 524 159 b 500 31 511 115 500 58 b 552 -13 500 5 510 -13 b 745 115 618 -13 681 33 b 713 138 741 127 732 138 b 623 69 677 97 636 69 b 609 93 613 69 609 76 b 624 172 609 105 616 136 l 702 488 m 552 795 b 616 731 552 761 581 731 b 680 795 650 731 680 761 b 616 859 680 830 650 859 b 552 795 581 859 552 830 m 330 795 b 393 731 330 761 359 731 b 457 795 428 731 457 761 b 393 859 457 830 428 859 b 330 795 359 859 330 830 "},"¯":{"x_min":213.890625,"x_max":608.328125,"ha":551,"o":"m 568 734 b 608 776 584 734 605 759 l 608 780 b 591 795 608 787 604 795 l 252 795 b 215 755 236 795 218 772 b 213 750 213 752 213 751 b 227 734 213 741 218 734 l 568 734 "},"Z":{"x_min":55.5625,"x_max":934.71875,"ha":803,"o":"m 733 -2 b 813 229 754 75 784 157 l 773 236 b 572 54 727 136 673 54 l 261 54 b 231 72 238 54 229 59 b 247 100 233 79 238 87 l 887 820 b 934 898 923 861 934 886 b 906 909 934 905 929 909 b 819 895 890 909 861 900 l 391 895 b 287 914 329 895 336 909 b 212 682 266 839 234 739 l 251 675 b 436 840 298 770 336 840 l 743 840 b 754 829 752 840 756 837 b 738 804 752 822 747 814 l 75 52 b 55 15 63 41 55 26 b 79 0 55 4 61 0 l 565 0 b 733 -2 600 0 733 -2 "},"u":{"x_min":118.0625,"x_max":745.828125,"ha":724,"o":"m 702 488 b 720 572 706 512 720 555 b 662 609 720 595 706 609 b 598 495 609 609 612 548 l 558 343 b 318 69 455 168 387 69 b 276 120 293 69 276 83 b 288 209 276 143 279 172 l 348 436 b 377 563 359 480 377 537 b 327 609 377 590 369 609 b 118 480 261 609 181 562 b 150 456 122 468 130 456 b 245 526 186 498 231 526 b 259 502 255 526 259 519 b 241 423 259 490 250 459 l 180 190 b 166 97 170 154 166 123 b 259 -13 166 18 211 -13 b 536 216 368 -13 437 72 l 540 213 l 525 159 b 501 31 512 115 501 58 b 552 -13 501 5 511 -13 b 745 115 619 -13 681 33 b 713 138 741 127 733 138 b 623 69 677 97 637 69 b 609 93 613 69 609 76 b 625 172 609 105 616 136 l 702 488 "},"Ó":{"x_min":120.828125,"x_max":980.5625,"ha":928,"o":"m 970 456 b 980 558 977 491 980 526 b 631 913 980 775 834 913 b 131 430 394 913 184 702 b 120 325 123 393 120 358 b 459 -13 120 113 261 -13 b 970 456 715 -13 916 179 m 605 866 b 856 569 755 866 856 766 b 843 430 856 526 852 480 b 495 33 794 181 648 33 b 247 337 359 33 247 143 b 259 454 247 373 251 412 b 605 866 315 744 484 866 m 529 966 b 593 983 541 966 563 973 l 827 1070 l 737 1133 l 541 1016 b 512 981 522 1004 512 994 b 529 966 512 970 518 966 "},"k":{"x_min":105.5625,"x_max":722.21875,"ha":675,"o":"m 122 101 b 105 25 116 73 105 38 b 162 -12 105 1 118 -12 b 225 101 215 -12 213 50 l 276 326 b 306 330 287 330 297 330 b 334 308 318 330 327 320 b 402 130 358 263 375 193 b 540 -12 448 30 483 -12 b 680 108 587 -12 636 30 b 650 126 670 119 665 126 b 577 59 622 86 593 59 b 527 112 550 59 541 83 b 451 281 488 188 470 243 b 375 356 429 325 420 344 l 375 362 l 447 426 b 580 512 515 486 552 512 b 658 493 616 512 611 493 b 722 562 677 493 722 519 b 654 611 722 601 691 611 b 425 469 609 611 525 558 l 369 420 b 287 379 345 401 316 379 l 387 811 l 422 956 b 405 970 422 966 418 970 b 211 934 368 956 268 938 l 206 901 b 213 894 206 897 208 894 l 256 891 b 286 852 275 891 286 883 b 276 783 286 837 281 813 l 122 101 "},"₯":{"x_min":11.109375,"x_max":1469.453125,"ha":1475,"o":"m 1352 367 b 1055 33 1325 217 1211 33 b 968 79 1019 33 995 46 b 913 39 956 69 926 42 l 1019 296 b 1243 513 1094 478 1179 513 b 1356 408 1309 513 1356 488 b 1352 367 1356 397 1355 382 m 780 -264 b 908 22 819 -207 868 -77 b 1023 -3 938 4 969 -3 b 1466 371 1263 -3 1440 225 b 1469 408 1468 383 1469 396 b 1293 560 1469 499 1406 560 b 1073 488 1234 560 1148 540 b 901 238 1027 454 972 411 l 802 -9 b 661 -281 738 -163 694 -238 l 665 -303 l 780 -264 m 401 475 b 531 767 452 613 493 703 l 538 767 b 776 528 708 767 776 658 b 769 454 776 504 773 479 b 340 40 734 263 625 40 b 250 60 263 40 250 44 b 251 71 250 63 251 67 b 256 89 252 79 254 83 l 401 475 m 559 808 b 683 919 595 856 633 886 l 679 938 b 479 800 605 907 540 868 b 165 692 377 786 279 751 l 173 664 b 444 757 268 704 355 740 b 300 474 394 690 347 599 l 155 90 b 70 33 141 50 118 33 l 33 33 b 20 22 27 33 22 28 l 11 0 l 173 1 b 358 0 219 1 243 0 b 876 458 634 0 833 215 b 881 524 880 481 881 503 b 594 808 881 689 766 808 l 559 808 "},"Ù":{"x_min":169.171875,"x_max":1055.5625,"ha":881,"o":"m 425 -13 b 841 409 698 -13 793 162 l 916 791 b 1002 855 923 830 945 850 l 1037 858 b 1050 869 1044 858 1048 862 l 1055 895 l 1052 898 b 905 895 990 897 936 895 b 759 898 875 895 822 897 l 756 895 l 751 869 b 759 858 750 862 755 858 l 795 855 b 856 811 838 851 856 838 b 855 791 856 804 856 798 l 776 384 b 463 43 745 229 690 43 b 319 112 400 43 351 72 b 280 237 290 148 280 191 b 298 373 280 281 290 327 l 380 794 b 466 855 388 833 411 850 l 501 858 b 513 869 508 858 512 862 l 519 895 l 516 898 b 345 895 454 897 398 895 b 177 898 293 895 240 897 l 173 895 l 169 869 b 177 858 168 862 172 858 l 212 855 b 275 811 255 851 275 840 b 273 794 275 806 273 800 l 181 327 b 170 230 175 291 170 258 b 425 -13 170 30 319 -13 m 815 993 b 800 1016 815 1000 809 1008 l 658 1133 l 537 1070 l 733 983 b 788 966 755 973 775 966 b 815 993 809 966 815 984 "},"€":{"x_min":60.0625,"x_max":706.828125,"ha":608,"o":"m 103 426 l 161 426 b 153 386 158 412 154 398 b 147 355 150 375 148 365 l 96 355 l 62 320 l 60 308 l 142 308 b 369 -18 123 108 204 -18 b 540 2 441 -18 501 5 b 633 212 559 58 608 148 l 592 222 b 394 40 544 130 494 40 b 254 308 280 40 235 126 l 487 308 l 522 355 l 261 355 b 267 401 262 369 265 384 b 273 426 270 409 272 418 l 558 426 l 591 473 l 286 473 b 523 762 330 631 416 762 b 651 580 624 762 647 673 l 694 587 b 706 790 694 651 697 731 b 536 811 666 787 608 811 b 173 473 379 811 239 680 l 139 473 l 105 440 l 103 426 "},"¢":{"x_min":129.65625,"x_max":600.5,"ha":608,"o":"m 319 165 b 278 199 304 171 290 182 b 243 336 257 225 243 251 b 417 661 243 522 322 640 l 319 165 m 446 811 l 425 707 b 129 306 272 694 129 528 b 172 151 129 258 139 196 b 304 85 200 111 247 85 l 304 85 l 285 -16 l 332 -16 l 351 88 b 533 211 422 100 468 140 b 503 238 529 225 515 238 b 367 161 457 186 406 167 l 464 663 b 504 608 483 657 504 643 b 497 582 504 600 501 589 b 490 553 494 576 490 561 b 528 508 490 531 504 508 b 600 571 565 508 600 524 b 472 706 600 621 578 694 l 492 810 l 446 811 "},"ß":{"x_min":-115.28125,"x_max":793.0625,"ha":754,"o":"m 356 519 l 377 613 b 597 925 411 763 452 925 b 681 841 655 925 681 893 b 491 568 681 702 527 591 l 487 550 b 626 280 568 476 626 383 b 483 31 626 168 550 31 b 420 62 455 31 420 31 b 451 141 420 86 451 93 b 412 169 451 158 434 169 b 355 77 386 169 355 152 b 472 -13 355 29 380 -13 b 754 300 640 -13 754 168 b 576 568 754 426 655 505 l 576 570 b 793 841 679 637 793 727 b 619 969 793 902 745 969 b 286 662 473 969 347 887 b 212 595 275 625 255 595 b 170 551 179 595 170 562 b 181 541 170 543 175 541 l 238 541 b 255 526 252 541 255 541 b 194 195 229 398 211 288 b 100 -223 172 76 138 -140 b 30 -284 83 -259 55 -284 b -6 -254 12 -284 4 -272 b -66 -220 -18 -236 -38 -220 b -115 -263 -100 -220 -115 -244 b 2 -330 -115 -290 -93 -330 b 144 -252 55 -330 104 -308 b 356 519 244 -109 283 190 "},"é":{"x_min":115.140625,"x_max":608.203125,"ha":564,"o":"m 231 276 b 597 512 594 347 597 459 b 459 609 597 561 572 609 b 115 197 222 609 115 373 b 285 -13 115 79 151 -13 b 556 150 379 -13 474 44 b 524 172 549 165 541 172 b 335 69 445 91 402 69 b 230 229 273 69 230 102 b 231 276 230 236 230 265 m 499 513 b 241 329 499 388 347 343 b 427 566 290 525 369 566 b 499 513 477 566 499 554 m 517 925 l 379 759 b 355 720 363 741 358 736 b 370 702 352 711 360 702 b 417 729 380 702 392 708 l 608 880 l 606 895 b 537 927 581 926 545 927 b 517 925 530 927 522 926 "},"s":{"x_min":91.671875,"x_max":512.5,"ha":490,"o":"m 258 -13 b 487 163 405 -13 487 63 b 311 377 487 231 447 294 b 251 470 265 405 251 431 b 338 563 251 516 277 563 b 397 527 370 563 391 555 b 459 459 402 497 427 459 b 512 506 501 459 512 486 b 362 609 512 554 444 609 b 162 436 234 609 162 518 b 293 259 162 377 194 319 b 384 133 372 209 384 161 b 263 31 384 56 329 33 b 209 66 231 31 215 38 b 144 136 204 97 183 136 b 91 88 102 136 91 102 b 258 -13 91 37 159 -13 "},"B":{"x_min":22.21875,"x_max":779.171875,"ha":774,"o":"m 27 26 l 22 0 l 25 -2 b 194 0 87 -1 141 0 b 384 -2 247 0 265 -2 b 770 255 650 -2 747 136 b 775 305 773 273 775 290 b 615 500 775 408 709 469 l 615 502 b 775 684 688 537 759 609 b 779 734 777 700 779 718 b 530 898 779 816 733 898 b 368 895 483 898 422 895 b 200 898 316 895 262 897 l 195 895 l 190 868 b 198 858 190 862 191 858 l 237 855 b 298 820 281 851 298 847 b 295 797 298 813 297 806 l 159 98 b 79 40 150 50 136 44 l 38 37 b 27 26 31 37 29 33 m 338 461 l 430 461 b 651 279 586 461 651 380 b 647 229 651 262 650 245 b 368 44 626 127 570 44 b 266 88 288 44 266 56 b 269 108 266 94 268 100 l 338 461 m 402 791 b 530 851 411 837 413 851 b 673 716 595 851 673 819 b 669 668 673 701 672 684 b 445 508 645 550 556 508 l 347 508 l 402 791 "},"?":{"x_min":203.625,"x_max":675.84375,"ha":563,"o":"m 316 131 b 230 48 266 131 230 86 b 293 -15 230 12 257 -15 b 380 70 342 -15 380 29 b 316 131 380 105 352 131 m 203 722 b 250 676 203 684 231 676 b 316 738 293 676 316 711 b 311 758 316 745 314 752 b 305 781 307 765 305 773 b 449 873 305 823 353 873 b 567 736 518 873 567 811 b 323 319 567 541 371 581 l 311 255 b 327 241 310 245 317 241 b 348 255 338 241 346 245 l 357 316 b 402 418 364 350 377 383 b 675 748 453 493 675 552 b 470 915 675 850 595 915 b 203 722 288 915 203 788 "},"H":{"x_min":23.609375,"x_max":1084.71875,"ha":932,"o":"m 704 102 b 619 40 695 63 677 44 l 584 37 b 570 26 577 37 572 33 l 566 0 l 568 -2 b 738 0 634 -1 672 0 b 908 -2 805 0 841 -1 l 911 0 l 916 26 b 906 37 918 33 913 37 l 872 40 b 808 83 827 43 808 54 b 811 102 808 88 809 95 l 945 797 b 1030 855 954 836 976 851 l 1066 858 b 1079 869 1073 858 1077 862 l 1084 895 l 1081 898 b 912 895 1015 897 979 895 b 741 898 845 895 808 897 l 738 895 l 733 869 b 743 858 731 862 737 858 l 777 855 b 840 813 820 851 840 841 b 838 797 840 808 838 802 l 781 504 l 347 504 l 404 797 b 488 855 411 836 434 850 l 523 858 b 536 869 530 858 534 862 l 541 895 l 538 898 b 368 895 472 897 434 895 b 200 898 301 895 265 897 l 195 895 l 191 869 b 200 858 190 862 194 858 l 234 855 b 297 813 276 851 297 841 b 295 797 297 808 295 802 l 159 100 b 76 40 152 61 131 44 l 40 37 b 29 26 34 37 30 33 l 23 0 l 25 -2 b 194 0 93 -1 127 0 b 363 -2 261 0 298 -1 l 368 0 l 372 26 b 363 37 373 33 369 37 l 330 40 b 265 81 284 43 265 52 b 268 100 265 87 266 93 l 336 445 l 770 445 l 704 102 "},"î":{"x_min":140.609375,"x_max":493.609375,"ha":383,"o":"m 340 444 b 368 575 353 498 368 551 b 340 605 368 594 358 605 b 168 587 296 605 233 595 b 169 548 158 576 161 561 l 225 544 b 250 516 242 543 250 530 b 237 445 250 502 246 484 l 172 159 b 148 31 162 115 148 58 b 205 -13 148 5 164 -13 b 399 115 272 -13 335 33 b 367 138 394 127 386 138 b 276 69 331 97 290 69 b 262 93 265 69 262 76 b 278 172 262 105 269 136 l 340 444 m 389 906 l 319 906 b 140 727 267 843 201 783 l 164 708 b 339 833 225 745 276 780 b 460 708 375 783 414 748 l 493 727 b 389 906 454 783 417 841 "},"c":{"x_min":115.65625,"x_max":587.890625,"ha":540,"o":"m 290 -13 b 521 113 390 -13 442 27 b 490 140 517 127 503 140 b 333 62 436 79 374 62 b 264 100 310 62 283 73 b 229 237 243 126 229 152 b 433 566 229 444 326 566 b 492 511 453 566 492 556 b 485 484 492 502 489 491 b 478 455 480 477 478 463 b 515 411 478 433 492 411 b 587 473 553 411 587 426 b 429 609 587 527 561 609 b 115 206 269 609 115 437 b 158 52 115 159 125 97 b 290 -13 186 12 233 -13 "},"¶":{"x_min":138.890625,"x_max":954.171875,"ha":836,"o":"m 656 -199 l 827 772 b 897 858 838 836 848 858 l 938 858 b 948 868 944 858 947 862 l 954 897 l 800 894 b 702 890 800 894 751 890 b 477 897 665 890 581 897 b 144 609 293 897 175 780 b 138 534 140 583 138 558 b 387 299 138 348 286 299 b 497 315 431 299 476 305 l 406 -198 b 337 -285 393 -270 383 -284 l 297 -285 b 287 -295 291 -285 288 -288 l 281 -324 l 737 -324 l 743 -295 b 737 -285 744 -289 743 -285 l 695 -285 b 651 -248 665 -284 651 -280 b 656 -199 651 -237 652 -220 m 513 -287 b 484 -241 491 -287 484 -266 b 488 -198 484 -227 486 -212 l 659 768 b 720 855 666 811 675 855 b 751 818 737 854 751 852 b 747 772 751 807 750 791 l 575 -201 b 513 -287 563 -259 554 -287 "},"¥":{"x_min":101.390625,"x_max":783.328125,"ha":608,"o":"m 606 230 l 406 230 l 423 318 l 623 318 l 634 374 l 451 374 l 658 696 b 754 761 683 736 713 761 l 763 761 b 779 772 776 761 777 767 l 783 796 l 780 799 b 680 794 754 796 693 794 b 572 799 662 794 583 797 l 570 796 l 565 771 b 572 761 563 767 565 761 l 593 761 b 623 743 618 761 626 755 b 601 699 622 733 612 718 l 413 403 l 330 699 b 323 742 326 717 322 730 b 361 760 326 753 336 760 l 379 760 b 391 772 386 760 390 767 l 395 796 l 394 799 b 273 794 373 796 281 794 b 147 799 255 794 162 796 l 144 796 l 140 771 b 151 760 138 762 147 761 l 161 760 b 222 696 198 760 211 736 l 313 374 l 140 374 l 129 318 l 311 318 l 294 230 l 112 230 l 101 176 l 283 176 l 269 100 b 181 39 262 61 238 39 l 145 39 b 131 28 138 39 133 35 l 127 1 l 129 -1 b 309 1 129 -1 259 1 b 483 -1 363 1 483 -1 l 487 1 l 491 28 b 483 39 493 35 488 39 l 445 39 b 381 100 391 39 373 57 l 395 176 l 595 176 l 606 230 "},"(":{"x_min":111.109375,"x_max":550,"ha":410,"o":"m 141 0 b 305 -283 172 -111 226 -201 l 334 -259 b 225 15 256 -150 234 -44 b 212 159 216 61 212 109 b 230 350 212 220 219 284 b 343 683 251 469 288 577 b 550 956 372 738 431 847 l 529 981 b 265 698 388 877 306 762 b 122 350 191 590 144 476 b 111 213 115 304 111 259 b 141 0 111 141 120 69 "},"U":{"x_min":169.171875,"x_max":1055.5625,"ha":881,"o":"m 425 -13 b 841 409 698 -13 793 162 l 916 791 b 1002 855 923 830 945 850 l 1037 858 b 1050 869 1044 858 1048 862 l 1055 895 l 1052 898 b 905 895 990 897 936 895 b 759 898 875 895 822 897 l 756 895 l 751 869 b 759 858 750 862 755 858 l 795 855 b 856 811 838 851 856 838 b 855 791 856 804 856 798 l 776 384 b 463 43 745 229 690 43 b 319 112 400 43 351 72 b 280 237 290 148 280 191 b 298 373 280 281 290 327 l 380 794 b 466 855 388 833 411 850 l 501 858 b 513 869 508 858 512 862 l 519 895 l 516 898 b 345 895 454 897 398 895 b 177 898 293 895 240 897 l 173 895 l 169 869 b 177 858 168 862 172 858 l 212 855 b 275 811 255 851 275 840 b 273 794 275 806 273 800 l 181 327 b 170 230 175 291 170 258 b 425 -13 170 30 319 -13 "},"Ñ":{"x_min":13.890625,"x_max":1095.828125,"ha":925,"o":"m 954 773 b 1041 855 962 815 988 851 l 1079 858 b 1091 869 1083 858 1090 862 l 1095 895 l 1094 898 b 948 895 1031 897 980 895 b 795 898 915 895 858 897 l 793 895 l 787 869 b 804 858 786 862 797 858 l 837 855 b 895 794 881 851 895 824 b 894 773 895 787 894 780 l 791 247 b 775 205 786 220 783 205 b 722 281 763 205 751 230 l 384 898 l 204 898 l 198 895 l 194 869 b 213 858 193 862 204 859 b 287 763 256 854 286 799 l 162 122 b 73 40 154 84 129 44 l 38 37 b 19 24 25 36 20 31 l 13 0 l 16 -2 b 169 0 79 -1 136 0 b 313 -2 202 0 251 -1 l 316 0 l 322 26 b 313 37 323 33 319 37 l 279 40 b 219 99 236 43 219 68 b 222 122 219 106 220 113 l 316 609 b 343 677 326 656 333 677 b 380 631 351 677 362 662 l 726 19 b 773 -13 736 -1 751 -13 b 809 29 791 -13 804 2 l 954 773 m 797 1029 b 731 1059 770 1029 750 1043 b 638 1098 708 1079 680 1098 b 502 974 579 1098 538 1056 l 534 968 b 616 1034 558 1013 580 1034 b 686 1004 640 1034 663 1019 b 766 968 711 984 736 968 b 913 1093 830 968 879 1009 l 881 1101 b 797 1029 850 1043 827 1029 "},"F":{"x_min":16.671875,"x_max":768.0625,"ha":635,"o":"m 498 448 b 555 406 538 448 555 437 b 555 395 555 402 555 400 l 552 361 b 559 350 551 356 552 350 l 588 350 l 595 354 b 613 475 601 409 608 447 b 643 600 618 502 627 544 l 638 605 l 609 605 b 597 594 604 605 598 600 l 587 559 b 509 501 575 520 555 501 l 340 501 l 395 793 b 454 840 402 826 422 840 l 593 840 b 718 688 693 840 706 784 l 756 695 b 768 897 761 752 768 886 b 763 901 768 900 766 901 b 700 895 738 897 731 895 l 361 895 b 193 898 309 895 255 897 l 190 895 l 184 868 b 193 858 183 863 183 858 l 231 855 b 290 812 273 851 290 840 b 288 793 290 806 290 800 l 154 102 b 70 40 147 63 127 44 l 34 37 b 22 26 27 37 23 33 l 16 0 l 19 -2 b 187 0 81 -1 136 0 b 358 -2 241 0 295 -1 l 361 0 l 366 26 b 356 37 368 33 363 37 l 323 40 b 259 83 279 43 259 54 b 262 102 259 88 261 95 l 329 448 l 498 448 "},"­":{"x_min":107,"x_max":484.78125,"ha":486,"o":"m 438 327 b 484 377 457 327 482 362 l 484 386 b 469 402 484 395 480 402 l 151 402 b 108 351 136 402 112 373 b 107 347 108 350 107 347 b 123 327 107 336 113 327 l 438 327 "},":":{"x_min":111.109375,"x_max":325,"ha":304,"o":"m 197 201 b 111 118 147 201 111 155 b 175 54 111 81 138 54 b 261 140 223 54 261 98 b 197 201 261 175 233 201 m 261 565 b 175 481 211 565 175 519 b 238 418 175 445 202 418 b 325 504 287 418 325 462 b 261 565 325 538 297 565 "},"Û":{"x_min":169.171875,"x_max":1055.5625,"ha":881,"o":"m 425 -13 b 841 410 698 -13 793 162 l 916 792 b 1002 855 923 830 945 850 l 1037 858 b 1050 869 1044 858 1048 862 l 1055 896 l 1052 898 b 905 896 990 897 936 896 b 759 898 875 896 822 897 l 756 896 l 751 869 b 759 858 750 862 755 858 l 795 855 b 856 811 838 851 856 839 b 855 792 856 804 856 798 l 776 385 b 463 43 745 229 690 43 b 319 112 400 43 351 72 b 280 237 290 148 280 192 b 298 373 280 282 290 328 l 380 794 b 466 855 388 833 411 850 l 501 858 b 513 869 508 858 512 862 l 519 896 l 516 898 b 345 896 454 897 398 896 b 177 898 293 896 240 897 l 173 896 l 169 869 b 177 858 168 862 172 858 l 212 855 b 275 811 255 851 275 840 b 273 794 275 807 273 800 l 181 328 b 170 230 175 292 170 258 b 425 -13 170 30 319 -13 m 729 1126 l 669 1126 b 501 996 616 1079 561 1035 l 513 967 b 681 1053 572 990 622 1015 b 809 967 719 1018 761 992 l 838 996 b 729 1126 795 1033 758 1076 "},"*":{"x_min":252.984375,"x_max":640.484375,"ha":601,"o":"m 414 787 b 275 665 358 736 286 724 l 275 659 b 309 626 275 641 289 626 b 432 770 361 626 386 708 b 505 626 457 716 451 626 b 552 666 525 626 548 641 b 554 677 554 670 554 673 b 459 787 554 723 493 740 b 536 793 484 791 508 793 b 640 844 583 793 633 802 l 640 849 b 601 886 640 865 633 886 b 455 813 554 886 523 841 b 507 948 466 855 500 911 l 507 959 b 469 997 507 984 491 997 b 416 942 444 997 422 972 b 415 927 416 937 415 933 b 427 830 415 899 427 869 l 427 815 b 305 886 371 840 352 886 b 252 844 273 886 257 863 l 252 836 b 355 793 252 801 293 793 b 414 787 376 793 397 791 "},"₫":{"x_min":19.109375,"x_max":814.9375,"ha":686,"o":"m 28 -68 l 19 -132 l 651 -132 l 662 -68 l 28 -68 m 814 794 l 708 794 l 738 969 l 708 969 b 631 945 678 956 656 951 b 533 933 606 941 553 933 l 528 898 b 535 891 528 894 531 891 l 580 897 b 610 851 599 897 610 884 b 605 795 610 837 608 817 l 603 794 l 405 794 l 395 740 l 595 740 l 567 583 b 451 613 537 601 478 613 b 227 530 359 613 292 583 b 96 281 158 470 114 384 b 89 206 91 255 89 230 b 285 -17 89 74 158 -17 b 480 78 356 -17 417 24 l 459 -17 l 492 -17 b 684 37 526 7 601 23 l 685 76 b 616 71 664 71 633 71 b 589 92 605 71 591 80 b 588 99 589 94 588 96 b 596 166 588 112 591 132 l 698 740 l 806 740 l 814 794 m 485 123 b 331 41 420 69 377 41 b 202 228 267 41 202 101 b 209 306 202 252 203 277 b 285 495 227 405 260 466 b 427 565 341 559 399 565 b 549 483 492 565 523 535 l 485 123 "},"°":{"x_min":190.28125,"x_max":470.828125,"ha":371,"o":"m 423 822 b 313 723 413 773 370 723 b 236 802 262 723 236 761 b 238 822 236 809 237 815 b 348 923 247 870 288 923 b 425 840 402 923 425 880 b 423 822 425 834 423 827 m 193 823 b 190 798 191 815 190 806 b 306 684 190 733 237 684 b 469 823 383 684 455 747 b 470 847 470 831 470 838 b 355 961 470 912 423 961 b 193 823 279 961 205 900 "},"V":{"x_min":169.171875,"x_max":1002.78125,"ha":829,"o":"m 798 784 l 472 176 l 465 176 l 376 794 b 373 811 375 800 373 806 b 445 855 373 838 391 847 l 469 858 b 481 869 476 859 480 862 l 487 895 l 484 898 b 319 895 422 897 370 895 b 177 898 266 895 240 897 l 173 895 l 169 869 b 177 858 168 862 172 858 b 261 772 245 852 251 830 l 373 15 b 398 -16 376 -5 384 -16 b 436 15 412 -16 425 -5 l 854 766 b 986 858 880 816 911 854 b 998 869 991 858 997 862 l 1002 895 l 1001 898 b 876 895 947 897 906 895 b 731 898 845 895 794 897 l 729 895 l 723 869 b 731 858 722 862 726 858 l 752 856 b 809 820 787 854 809 845 b 798 784 809 811 805 798 "},"å":{"x_min":108.625,"x_max":683.40625,"ha":675,"o":"m 500 304 b 280 62 432 179 325 62 b 219 195 233 62 219 118 b 462 566 219 343 335 566 b 548 540 491 566 522 556 b 500 304 548 540 534 393 m 569 601 b 458 609 532 605 514 609 b 108 173 310 609 108 391 b 243 -13 108 95 126 -13 b 478 186 316 -13 394 62 l 480 183 l 462 125 b 448 48 453 93 448 65 b 505 -13 448 22 458 -13 b 683 120 591 -13 647 41 b 651 143 675 131 669 143 b 573 69 613 91 587 69 b 557 88 569 69 557 72 b 570 166 557 101 565 140 l 666 598 b 569 601 633 598 597 594 m 353 823 b 451 708 340 759 387 708 b 594 823 518 708 582 761 b 497 938 608 888 561 938 b 353 823 433 938 366 887 m 490 901 b 543 823 532 901 552 866 b 458 745 536 784 501 745 b 404 823 415 745 397 784 b 490 901 414 865 447 901 "}," ":{"x_min":0,"x_max":0,"ha":347},"0":{"x_min":123.609375,"x_max":654.171875,"ha":608,"o":"m 305 -16 b 640 398 406 -16 580 90 b 654 530 650 445 654 490 b 612 711 654 601 638 661 b 469 802 580 763 529 802 b 136 386 340 802 186 645 b 123 261 127 343 123 301 b 305 -16 123 104 186 -16 m 461 754 b 515 733 483 754 502 747 b 555 575 537 709 555 658 b 459 152 555 466 513 266 b 315 29 409 44 338 29 b 220 202 241 29 220 112 b 238 372 220 262 230 326 b 461 754 302 695 401 754 "},"¾":{"x_min":87.5,"x_max":956.953125,"ha":917,"o":"m 845 221 b 830 234 848 232 838 234 b 788 205 820 234 801 217 b 775 181 784 202 776 191 l 754 74 l 627 74 l 854 333 l 815 346 l 543 44 l 544 27 l 744 27 l 730 -42 b 693 -76 725 -72 718 -76 l 672 -76 b 665 -82 666 -76 665 -79 l 659 -110 b 745 -108 659 -110 712 -108 b 841 -110 781 -108 841 -110 l 845 -82 b 840 -76 847 -79 845 -76 l 819 -76 b 794 -42 793 -76 790 -67 l 808 27 l 880 27 l 894 74 l 818 74 l 845 221 m 413 795 b 291 694 402 738 354 702 l 288 661 b 316 663 298 663 306 663 b 408 576 350 663 423 654 b 280 460 388 478 306 460 b 215 485 234 460 223 472 b 183 505 208 495 202 505 b 144 477 168 505 145 491 b 258 427 138 448 205 427 b 491 585 368 427 473 490 b 404 708 506 666 450 704 b 493 804 448 730 486 762 b 391 884 502 854 463 884 b 211 787 270 884 216 811 b 238 762 211 783 211 762 b 283 802 269 762 277 786 b 368 851 290 837 341 851 b 413 795 395 851 422 838 m 901 834 l 87 -75 l 144 -86 l 956 823 l 901 834 "},"@":{"x_min":126.015625,"x_max":1176.3125,"ha":1151,"o":"m 773 102 b 809 195 776 114 794 157 l 962 553 l 945 560 l 873 542 l 859 509 b 773 569 854 545 815 569 b 395 212 636 569 437 410 b 518 39 384 156 388 39 b 719 182 562 39 640 80 l 722 181 b 684 94 704 146 688 114 b 718 37 679 71 681 37 b 1165 391 998 37 1130 232 b 784 848 1220 650 1062 848 b 140 309 493 848 202 606 b 537 -219 76 12 230 -219 b 863 -107 683 -219 772 -171 l 851 -82 b 572 -174 769 -142 681 -174 b 248 334 238 -174 204 125 b 762 806 319 663 566 806 b 1061 381 925 806 1120 667 b 783 85 1011 150 916 85 b 773 102 780 85 770 88 m 827 438 b 752 277 816 391 780 320 b 566 96 693 175 611 96 b 493 224 486 96 479 157 b 633 470 511 310 551 399 b 761 525 681 513 738 525 b 827 438 806 525 838 491 "},"ö":{"x_min":108.328125,"x_max":645.828125,"ha":621,"o":"m 108 225 b 302 -13 108 151 126 -13 b 430 12 347 -13 388 -8 b 645 384 551 72 645 219 b 450 609 645 484 620 609 b 108 225 218 609 108 391 m 223 236 b 425 563 223 361 266 563 b 505 501 466 563 484 540 b 530 375 522 465 530 416 b 472 122 530 319 518 202 b 337 34 438 63 394 34 b 223 236 297 34 223 90 m 486 795 b 550 731 486 761 515 731 b 613 795 584 731 613 761 b 550 859 613 830 584 859 b 486 795 515 859 486 830 m 263 795 b 327 731 263 761 293 731 b 391 795 362 731 391 761 b 327 859 391 830 362 859 b 263 795 293 859 263 830 "},"i":{"x_min":148.140625,"x_max":412.03125,"ha":383,"o":"m 339 444 b 367 575 352 498 367 551 b 339 605 367 594 357 605 b 167 587 295 605 232 595 b 168 548 157 576 160 561 l 224 544 b 249 516 241 543 249 530 b 237 445 249 502 245 484 l 171 159 b 148 31 162 115 148 58 b 205 -13 148 5 163 -13 b 398 115 271 -13 334 33 b 366 138 393 127 385 138 b 275 69 330 97 289 69 b 262 93 264 69 262 76 b 277 172 262 105 268 136 l 339 444 m 278 791 b 345 725 278 755 309 725 b 412 791 381 725 412 755 b 345 858 412 827 381 858 b 278 791 309 858 278 827 "},"Õ":{"x_min":120.828125,"x_max":980.5625,"ha":928,"o":"m 970 456 b 980 558 977 491 980 526 b 631 913 980 774 834 913 b 131 430 394 913 184 702 b 120 324 123 393 120 358 b 459 -13 120 113 261 -13 b 970 456 715 -13 916 179 m 605 866 b 856 569 755 866 856 766 b 843 430 856 526 852 480 b 495 33 794 181 648 33 b 247 337 359 33 247 143 b 259 454 247 373 251 412 b 605 866 315 744 484 866 m 737 1029 b 672 1059 711 1029 690 1043 b 579 1098 648 1079 620 1098 b 443 974 519 1098 479 1056 l 475 968 b 556 1034 498 1013 520 1034 b 626 1004 580 1034 604 1019 b 706 968 651 984 676 968 b 854 1093 770 968 819 1009 l 822 1101 b 737 1029 790 1043 768 1029 "},"þ":{"x_min":-40.28125,"x_max":727.78125,"ha":694,"o":"m 613 378 b 358 34 613 270 548 34 b 252 93 312 34 276 54 l 348 506 b 495 543 380 523 437 543 b 613 378 590 543 613 446 m 73 -223 b 0 -287 63 -262 44 -280 l -26 -291 b -40 -302 -33 -293 -40 -294 l -40 -329 l -37 -332 b 106 -323 -37 -332 56 -323 b 255 -326 161 -323 255 -326 l 258 -323 l 258 -295 b 250 -284 258 -288 254 -286 l 223 -280 b 177 -223 201 -277 165 -270 l 238 32 b 355 -13 245 25 286 -13 b 727 401 579 -13 727 245 b 541 609 727 524 654 609 b 362 560 476 609 420 594 l 418 810 b 452 956 437 899 452 956 b 436 970 452 966 448 970 b 241 934 398 956 298 938 l 237 901 b 244 894 237 897 238 894 l 287 891 b 316 852 305 891 316 883 b 306 782 316 837 313 812 l 238 494 b 91 341 180 448 123 395 l 118 323 b 225 433 145 362 181 398 l 73 -223 "},"]":{"x_min":-4.171875,"x_max":511.109375,"ha":464,"o":"m -4 -277 l 293 -277 l 511 956 l 212 956 l 202 897 l 405 897 l 209 -216 l 5 -216 l -4 -277 "},"m":{"x_min":154.96875,"x_max":1092.109375,"ha":1088,"o":"m 252 445 l 171 100 b 154 23 166 72 154 37 b 211 -13 154 0 167 -13 b 274 100 264 -13 262 47 l 331 323 b 562 526 440 480 518 526 b 598 475 590 526 598 516 b 587 381 598 458 597 425 l 519 100 b 502 23 513 70 502 37 b 559 -13 502 0 515 -13 b 622 100 612 -13 609 47 l 676 318 b 893 526 794 483 849 526 b 933 475 919 526 933 516 b 921 376 933 459 930 419 l 867 158 b 842 31 851 100 842 44 b 886 -13 842 4 867 -13 b 1092 140 968 -13 1044 26 b 1061 159 1089 152 1079 159 b 964 69 1028 106 989 69 b 953 84 956 69 953 77 b 961 140 953 88 957 123 l 1026 387 b 1040 488 1035 419 1040 462 b 956 609 1040 576 999 609 b 700 423 857 609 781 525 b 706 488 704 445 706 470 b 625 609 706 586 664 609 b 352 430 524 609 434 536 l 349 431 l 352 444 b 382 575 364 498 382 551 b 354 605 382 594 373 605 b 182 587 310 605 248 595 b 184 548 173 576 175 561 l 239 544 b 264 516 256 543 264 530 b 252 445 264 502 260 484 "},"8":{"x_min":94.4375,"x_max":647.21875,"ha":608,"o":"m 356 398 l 413 358 b 497 216 475 316 497 268 b 318 22 497 115 431 22 b 180 154 263 22 180 62 b 356 398 180 251 263 343 m 647 659 b 462 802 647 738 576 802 b 206 586 309 802 206 701 b 294 441 206 529 236 486 l 313 426 b 94 143 211 363 94 290 b 306 -16 94 38 186 -16 b 594 255 491 -16 594 133 b 523 400 594 311 570 363 l 454 448 b 647 659 573 519 647 572 m 413 477 l 379 504 b 304 625 319 548 304 588 b 448 769 304 694 362 769 b 562 655 522 769 562 708 b 413 477 562 618 554 568 "},"R":{"x_min":22.96875,"x_max":797.96875,"ha":771,"o":"m 538 908 b 368 895 504 908 421 895 b 200 898 316 895 263 897 l 196 895 l 191 866 b 197 858 189 861 192 858 l 249 855 b 296 809 268 854 296 843 b 296 797 296 805 296 801 l 160 100 b 75 40 153 61 132 44 l 41 37 b 28 26 34 37 29 33 l 22 0 l 25 -2 b 195 0 88 -1 142 0 b 364 -2 247 0 302 -1 l 368 0 l 372 26 b 364 37 374 33 370 37 l 329 40 b 266 81 285 43 266 52 b 268 100 266 86 267 93 l 328 404 b 477 351 439 404 463 383 l 571 109 b 724 -13 597 44 643 -13 b 782 -4 743 -13 767 -11 l 786 29 b 679 136 727 29 703 76 l 568 427 b 792 665 629 447 763 519 b 797 716 795 683 797 700 b 754 838 797 763 782 802 b 538 908 703 901 621 908 m 529 861 b 679 723 599 861 679 836 b 674 663 679 705 678 686 b 403 451 639 490 532 451 l 336 451 l 404 797 b 529 861 411 837 435 861 "},"á":{"x_min":108.625,"x_max":683.40625,"ha":675,"o":"m 500 304 b 280 62 432 179 325 62 b 219 195 233 62 219 118 b 462 566 219 343 335 566 b 548 540 491 566 522 556 b 500 304 548 540 534 393 m 569 601 b 458 609 532 605 514 609 b 108 173 310 609 108 391 b 243 -13 108 95 126 -13 b 478 186 316 -13 394 62 l 480 183 l 462 125 b 448 48 453 93 448 65 b 505 -13 448 22 458 -13 b 683 120 591 -13 647 41 b 651 143 675 131 669 143 b 573 69 613 91 587 69 b 557 88 569 69 557 72 b 570 166 557 101 565 140 l 666 598 b 569 601 633 598 597 594 m 511 925 l 372 759 b 348 720 357 741 351 736 b 364 702 346 711 354 702 b 411 729 373 702 386 708 l 601 880 l 600 895 b 530 927 575 926 539 927 b 511 925 523 927 515 926 "},"×":{"x_min":173.609375,"x_max":670.828125,"ha":732,"o":"m 470 319 l 670 490 l 631 539 l 430 367 l 290 539 l 233 490 l 373 319 l 173 149 l 213 101 l 413 270 l 552 101 l 609 149 l 470 319 "},"o":{"x_min":108.328125,"x_max":645.828125,"ha":621,"o":"m 108 225 b 302 -13 108 151 126 -13 b 430 12 347 -13 388 -8 b 645 384 551 72 645 219 b 450 609 645 484 620 609 b 108 225 218 609 108 391 m 223 236 b 425 563 223 361 266 563 b 505 501 466 563 484 540 b 530 375 522 465 530 416 b 472 122 530 319 518 202 b 337 34 438 63 394 34 b 223 236 297 34 223 90 "},"5":{"x_min":86.109375,"x_max":665.28125,"ha":608,"o":"m 286 30 b 141 126 193 30 198 126 b 86 75 108 126 86 98 b 273 -16 86 23 198 -16 b 586 300 475 -16 586 148 b 400 514 586 409 525 514 b 262 493 345 514 293 504 l 330 712 b 487 701 377 706 425 701 b 626 707 526 701 570 702 l 665 797 l 658 802 b 437 788 580 793 506 788 b 297 795 388 788 343 790 l 179 416 b 352 448 237 439 288 448 b 481 284 425 448 481 389 b 286 30 481 147 402 30 "},"õ":{"x_min":107.734375,"x_max":646.046875,"ha":621,"o":"m 513 792 b 448 822 487 792 466 806 b 355 861 424 842 396 861 b 218 737 295 861 255 819 l 250 731 b 332 797 274 776 296 797 b 402 767 356 797 380 782 b 483 731 427 747 452 731 b 630 856 547 731 595 772 l 598 864 b 513 792 566 806 544 792 m 107 225 b 302 -13 107 151 125 -13 b 430 12 346 -13 388 -7 b 646 385 551 72 646 219 b 449 610 646 485 621 610 b 107 225 217 610 107 392 m 223 236 b 424 564 223 361 266 564 b 505 501 466 564 484 540 b 530 375 522 465 530 417 b 472 122 530 319 518 203 b 337 35 438 64 394 35 b 223 236 296 35 223 90 "},"�":{"x_min":83.328125,"x_max":1388.890625,"ha":1471,"o":"m 83 408 l 737 -245 l 1388 405 l 734 1061 l 83 408 m 725 140 b 709 154 715 140 709 144 l 709 218 b 713 306 709 263 711 294 b 758 394 720 336 734 365 b 801 441 773 413 787 430 b 884 602 856 491 884 537 b 859 700 884 643 876 666 b 745 776 831 751 794 776 b 636 743 698 776 662 765 b 609 695 613 723 611 713 b 615 668 609 683 612 673 b 627 627 623 656 627 643 b 613 594 627 612 622 601 b 573 579 602 583 588 579 b 529 595 555 579 541 584 b 516 637 520 605 516 620 b 586 763 516 691 545 729 b 758 816 627 798 686 816 b 919 763 829 816 880 797 b 987 608 968 716 987 677 b 940 477 987 561 976 523 b 840 384 912 443 879 412 b 769 316 804 359 780 337 b 743 215 751 281 743 248 l 743 154 b 725 140 743 144 736 140 m 679 2 b 727 25 693 18 709 25 b 776 2 747 25 762 16 b 795 -44 788 -11 795 -26 b 776 -91 795 -62 788 -77 b 727 -111 762 -105 747 -111 b 679 -91 708 -111 693 -104 b 659 -44 665 -77 659 -62 b 679 2 659 -25 666 -9 "},"7":{"x_min":159.71875,"x_max":708.328125,"ha":608,"o":"m 345 705 l 594 705 l 159 -8 l 162 -16 l 252 -12 b 708 786 372 211 491 428 l 690 796 b 587 787 666 789 636 787 l 322 787 b 284 803 290 787 284 796 l 254 803 b 183 615 234 725 211 672 l 219 610 b 345 705 259 680 284 705 "},"K":{"x_min":26.140625,"x_max":1002.78125,"ha":885,"o":"m 295 790 l 161 105 b 75 41 154 66 131 47 l 31 37 b 29 -2 26 31 23 9 b 195 0 91 -1 141 0 b 372 -2 248 0 311 -1 b 376 37 376 2 380 30 l 329 41 b 268 105 275 45 259 63 l 331 429 b 434 376 379 429 413 413 l 598 101 b 611 47 608 81 611 63 b 606 8 611 33 608 19 l 605 0 l 606 -2 b 701 0 634 -1 661 0 b 838 -2 752 0 776 -1 l 844 0 l 848 26 b 838 37 850 33 844 36 l 830 38 b 738 101 793 44 763 58 l 516 462 b 506 497 506 476 505 486 b 569 565 509 506 516 516 l 797 775 b 980 858 872 843 925 851 b 997 869 987 858 995 862 l 1002 895 l 998 898 b 868 895 936 897 920 895 b 713 898 813 895 776 897 l 709 895 l 705 869 b 713 858 704 862 708 858 l 740 855 b 772 834 762 852 772 845 b 731 780 772 822 756 804 l 459 536 b 341 481 426 505 393 484 l 402 790 b 488 854 411 829 431 848 l 531 858 b 534 898 537 863 540 886 b 368 895 472 897 422 895 b 191 898 315 895 252 897 b 187 858 187 893 183 865 l 234 854 b 295 790 287 848 302 830 "},",":{"x_min":29.734375,"x_max":243.0625,"ha":304,"o":"m 86 62 b 133 5 86 29 106 12 b 176 -30 155 0 176 -5 b 30 -151 176 -69 104 -134 b 43 -183 27 -163 31 -174 b 243 43 204 -153 243 -28 b 168 132 243 98 211 132 b 86 62 126 132 86 105 "},"d":{"x_min":112.859375,"x_max":760.09375,"ha":679,"o":"m 479 162 l 469 126 b 455 50 461 93 455 66 b 512 -12 455 23 465 -12 b 690 122 598 -12 654 43 b 658 144 682 133 676 144 b 580 70 621 93 594 70 b 564 90 576 70 564 73 b 578 168 564 102 572 141 l 725 811 l 760 956 b 743 970 760 966 755 970 b 548 934 705 956 605 938 l 544 901 b 551 894 544 897 546 894 l 594 891 b 623 852 612 891 623 883 b 614 783 623 837 619 812 l 562 534 l 561 534 b 451 611 544 576 504 611 b 112 187 303 611 112 405 b 254 -12 112 111 132 -12 b 475 165 326 -12 392 43 l 479 162 m 479 270 b 278 51 410 145 332 51 b 223 209 233 51 223 131 b 455 561 223 356 328 561 b 543 440 508 561 543 488 b 479 270 543 408 518 344 "},"¨":{"x_min":215.28125,"x_max":566.671875,"ha":521,"o":"m 513 859 b 438 784 479 859 438 829 b 491 733 438 755 461 733 b 566 806 526 733 566 763 b 513 859 566 836 544 859 m 290 858 b 215 784 255 858 215 827 b 268 731 215 754 237 731 b 343 806 301 731 343 762 b 290 858 343 836 320 858 "},"Ô":{"x_min":120.828125,"x_max":980.5625,"ha":928,"o":"m 970 457 b 980 558 977 492 980 526 b 631 914 980 775 834 914 b 131 430 394 914 184 703 b 120 325 123 393 120 358 b 459 -13 120 114 261 -13 b 970 457 715 -13 916 179 m 605 867 b 856 569 755 867 856 767 b 843 430 856 526 852 480 b 495 33 794 182 648 33 b 247 337 359 33 247 143 b 259 454 247 373 251 412 b 605 867 315 744 484 867 m 723 1126 l 663 1126 b 495 996 611 1079 555 1035 l 508 967 b 676 1053 566 990 616 1015 b 804 967 713 1018 755 992 l 833 996 b 723 1126 790 1033 752 1076 "},"E":{"x_min":15.28125,"x_max":768.0625,"ha":731,"o":"m 768 897 b 762 901 768 899 766 901 b 698 895 738 897 730 895 l 361 895 b 193 898 309 895 255 897 l 190 895 l 184 867 b 193 858 183 863 183 858 l 231 855 b 290 812 272 851 290 840 b 288 792 290 805 290 799 l 154 99 b 73 40 145 60 126 44 l 33 37 b 20 27 25 37 22 31 l 15 0 l 18 -3 b 187 0 80 -1 136 0 l 473 0 b 643 -3 537 0 643 -3 l 737 228 l 697 235 b 481 53 651 135 583 53 l 301 53 b 258 84 276 53 258 59 b 261 99 258 88 259 94 l 329 448 l 498 448 b 555 406 538 448 555 437 b 555 395 555 402 555 399 l 552 360 b 559 349 551 356 552 349 l 588 349 l 595 353 b 613 474 601 409 608 447 b 643 599 618 502 627 544 l 638 605 l 609 605 b 597 594 604 605 598 599 l 587 559 b 509 501 575 520 555 501 l 340 501 l 395 792 b 454 840 402 826 422 840 l 593 840 b 718 688 693 840 706 784 l 756 695 b 768 897 762 752 768 885 "},"Y":{"x_min":170.171875,"x_max":920.9375,"ha":767,"o":"m 466 105 l 519 372 b 538 430 523 395 529 415 l 781 784 b 877 855 811 826 829 851 l 913 858 b 919 898 918 865 923 893 b 808 895 879 897 838 895 b 681 898 777 895 734 897 b 679 858 677 893 676 863 l 723 854 b 730 800 756 850 758 840 l 511 465 l 505 465 l 387 800 b 416 854 373 836 369 848 l 462 858 b 465 898 466 865 468 893 b 316 895 411 897 369 895 b 172 898 265 895 211 897 b 175 858 168 891 170 865 l 195 855 b 280 759 241 848 252 833 l 408 419 b 412 394 411 409 412 400 b 408 359 412 386 411 373 l 359 105 b 273 41 352 66 330 47 l 230 37 b 227 -2 225 31 222 9 b 394 0 290 -1 340 0 b 570 -2 447 0 509 -1 b 575 37 575 2 579 30 l 527 41 b 466 105 473 45 458 63 "},"\"":{"x_min":227.78125,"x_max":531.9375,"ha":467,"o":"m 227 593 l 265 598 b 355 848 265 598 351 826 b 356 858 356 851 356 854 b 316 894 356 876 347 894 b 231 825 273 894 237 855 b 227 593 230 812 227 593 m 404 594 l 441 600 b 531 850 441 600 527 828 l 531 859 b 491 895 531 877 522 895 b 408 826 450 895 412 857 b 404 594 405 814 404 594 "},"ê":{"x_min":115.140625,"x_max":597.015625,"ha":564,"o":"m 231 276 b 597 512 594 347 597 459 b 459 609 597 561 572 609 b 115 197 222 609 115 373 b 285 -13 115 79 151 -13 b 556 150 379 -13 474 44 b 524 172 549 165 541 172 b 335 69 445 91 402 69 b 230 229 273 69 230 102 b 231 276 230 236 230 265 m 499 513 b 241 329 499 388 347 343 b 427 566 290 525 369 566 b 499 513 477 566 499 554 m 484 906 l 415 906 b 235 727 362 843 297 783 l 259 708 b 433 833 320 745 372 780 b 555 708 470 783 509 748 l 588 727 b 484 906 549 783 512 841 "},"Ï":{"x_min":26.28125,"x_max":594.90625,"ha":389,"o":"m 295 790 l 161 105 b 75 41 154 66 132 47 l 32 37 b 29 -2 26 31 23 9 b 195 0 91 -1 141 0 b 372 -2 248 0 311 -1 b 376 37 376 2 380 30 l 329 41 b 268 105 275 45 259 63 l 403 790 b 489 854 411 829 432 848 l 532 858 b 535 898 537 863 540 886 b 368 895 472 897 422 895 b 191 898 315 895 252 897 b 187 858 187 893 183 865 l 234 854 b 295 790 287 848 302 830 m 468 1031 b 467 1020 467 1027 467 1023 b 519 968 467 990 489 968 b 593 1031 554 968 587 997 b 594 1044 594 1034 594 1040 b 543 1094 594 1072 574 1094 b 468 1031 508 1094 475 1065 m 204 1030 b 202 1019 204 1026 202 1022 b 255 968 202 990 225 968 b 330 1030 290 968 323 995 b 332 1043 330 1034 332 1038 b 280 1093 332 1072 311 1093 b 204 1030 246 1093 211 1065 "},"Â":{"x_min":2.78125,"x_max":925.21875,"ha":926,"o":"m 223 109 l 340 311 b 391 334 350 329 359 334 l 669 334 l 704 100 b 704 86 704 94 704 90 b 637 40 704 56 681 43 l 598 37 b 587 26 593 37 588 33 l 581 0 l 583 -2 b 761 0 633 -1 709 0 b 916 -2 815 0 868 -1 l 919 0 l 925 26 b 913 37 926 33 920 37 l 900 38 b 816 119 847 44 825 65 l 688 872 b 661 913 684 898 680 913 b 606 863 641 913 629 900 l 169 141 b 20 37 116 55 79 41 b 8 26 13 37 9 33 l 2 0 l 4 -2 b 127 0 54 -1 76 0 b 301 -2 181 0 252 -1 l 305 0 l 309 26 b 301 37 311 33 306 37 l 263 40 b 212 76 229 43 212 56 b 223 109 212 86 216 97 m 426 393 b 393 401 404 393 393 394 b 397 411 393 404 394 406 l 598 763 l 601 763 l 658 393 l 426 393 m 744 1133 l 684 1133 b 516 1002 631 1086 576 1041 l 529 973 b 697 1059 587 997 637 1022 b 825 973 734 1025 776 998 l 854 1002 b 744 1133 811 1040 773 1083 "},"❧":{"x_min":107.453125,"x_max":1577.96875,"ha":1554,"o":"m 652 -37 b 612 -80 637 -37 612 -46 l 612 -90 b 598 -53 602 -79 598 -65 b 612 -12 598 -39 601 -30 b 651 -15 623 -15 638 -15 b 789 87 761 -15 783 54 b 872 68 813 72 847 68 b 947 97 899 68 928 80 l 986 99 b 985 77 985 91 985 85 b 1015 47 985 52 1001 47 b 1064 97 1030 47 1064 57 b 1046 131 1064 114 1056 125 b 1005 135 1040 135 1025 135 l 975 135 b 1026 232 990 168 1015 216 b 1108 305 1050 269 1089 305 b 1158 287 1117 305 1140 295 b 1160 254 1160 279 1160 270 b 1147 223 1160 227 1154 223 b 1134 254 1138 223 1134 227 b 1135 270 1134 259 1134 263 b 1120 272 1129 270 1124 272 b 1085 234 1114 272 1085 263 b 1147 156 1085 194 1147 189 b 1139 104 1147 143 1143 122 b 1218 262 1216 146 1218 203 b 1269 254 1234 258 1254 254 b 1398 322 1330 254 1362 286 b 1266 396 1362 356 1318 396 b 1218 385 1243 396 1234 393 b 1138 546 1218 435 1214 510 b 1147 490 1142 526 1147 504 b 1085 409 1147 457 1085 453 b 1117 376 1085 385 1110 376 b 1134 379 1122 376 1127 376 b 1131 393 1131 384 1131 388 b 1146 421 1131 393 1133 421 b 1158 392 1157 421 1158 419 b 1157 359 1158 378 1157 367 b 1111 351 1139 355 1120 351 b 987 477 1083 351 1050 394 l 1010 477 b 1069 517 1042 477 1069 481 b 1021 567 1069 555 1030 567 b 990 533 1001 567 990 553 b 991 516 990 527 990 521 l 955 517 b 899 544 940 532 921 544 b 785 506 857 544 819 527 l 785 514 b 744 618 785 549 763 596 b 619 673 736 627 694 673 b 604 672 613 673 611 673 b 591 712 598 687 591 697 b 605 750 591 725 597 739 l 605 741 b 645 697 605 705 631 697 b 683 736 672 697 683 716 b 682 752 683 740 683 747 l 718 750 b 648 791 704 769 687 791 b 558 697 576 791 558 745 b 561 664 558 686 559 675 b 429 556 541 658 472 632 b 357 594 412 574 369 594 b 308 528 326 594 308 566 b 357 481 308 509 325 481 b 390 504 379 481 371 504 b 404 503 396 504 401 503 b 414 508 408 503 413 505 l 414 493 b 487 335 414 473 414 403 l 457 335 b 271 535 382 363 271 424 b 311 660 271 584 282 633 b 437 729 344 691 390 712 b 577 810 490 747 541 771 b 647 927 613 851 638 898 b 765 814 694 897 746 844 b 868 610 811 739 854 665 b 1010 648 919 625 917 648 b 1286 537 1116 648 1215 602 l 1507 328 l 1291 114 b 1021 -16 1185 7 1093 -16 b 858 23 953 -16 911 -9 b 662 -261 829 -52 741 -195 b 573 -133 638 -211 612 -165 b 412 -54 537 -105 464 -74 b 276 108 318 -17 276 43 b 454 305 276 186 339 258 l 482 305 b 413 157 476 301 413 243 b 414 133 413 149 413 142 b 367 156 371 133 392 156 b 318 108 336 156 318 132 b 367 43 318 71 336 43 b 435 77 378 43 417 61 b 569 -5 455 50 500 11 b 564 -43 565 -19 564 -30 b 654 -132 564 -116 616 -132 b 724 -90 693 -132 711 -109 l 688 -93 b 691 -76 689 -87 691 -82 b 652 -37 691 -58 679 -37 m 725 277 b 640 322 671 277 640 314 b 722 372 640 334 671 372 b 843 325 772 372 807 355 b 725 277 806 297 779 277 m 887 668 b 796 839 868 716 818 807 b 619 994 739 919 679 958 b 547 832 616 919 586 871 b 422 762 529 814 471 780 b 232 535 314 720 232 690 b 356 335 232 446 296 376 l 300 343 l 107 404 l 107 355 l 186 325 l 108 295 l 108 247 l 300 302 l 357 309 l 358 309 b 307 268 333 291 317 279 b 229 105 282 244 229 191 b 401 -95 229 -15 325 -72 b 526 -149 443 -108 493 -130 b 644 -336 576 -179 638 -277 b 882 -33 744 -257 828 -151 b 1025 -65 912 -47 967 -65 b 1321 74 1148 -65 1276 31 l 1577 326 l 1316 574 b 1015 695 1260 626 1136 695 b 887 668 967 695 910 677 m 1333 322 b 1255 293 1312 302 1287 293 b 1175 323 1226 293 1201 304 b 1259 361 1198 345 1227 361 b 1333 322 1284 361 1311 345 m 540 243 b 600 112 540 197 600 168 b 580 32 600 86 590 58 b 462 167 537 44 462 82 b 536 305 462 247 529 286 b 609 280 583 305 588 304 b 579 286 600 283 588 286 b 540 243 562 286 540 283 m 933 325 b 721 422 849 385 796 422 b 656 409 696 422 673 416 b 675 461 666 423 675 439 b 625 631 675 536 638 607 b 757 463 724 631 757 515 b 754 442 757 456 756 448 b 889 512 776 465 849 512 b 925 490 899 512 911 503 b 889 495 914 493 901 495 b 853 466 861 495 853 483 b 896 426 853 434 879 426 b 1028 372 944 426 974 412 b 1079 329 1051 354 1069 337 b 1004 261 1061 325 1028 289 b 894 201 1004 261 939 201 b 849 161 874 201 849 193 b 886 131 849 144 857 131 b 935 140 903 131 921 136 b 858 107 928 129 901 107 b 756 151 836 107 796 125 b 757 129 757 144 757 137 b 644 19 757 41 704 19 l 630 22 b 682 185 651 59 682 119 b 661 238 682 207 672 225 b 724 225 685 227 711 225 b 933 325 796 225 849 259 m 458 485 b 468 534 458 503 461 520 b 573 621 507 601 557 615 b 594 536 583 594 594 563 b 534 404 594 479 534 450 b 570 362 534 365 557 362 b 608 369 583 362 597 365 b 536 335 590 337 580 335 b 458 485 523 368 458 375 "},"Í":{"x_min":26.140625,"x_max":588.890625,"ha":389,"o":"m 295 790 l 161 105 b 75 41 154 66 131 47 l 31 37 b 29 -2 26 31 23 9 b 195 0 91 -1 141 0 b 372 -2 248 0 311 -1 b 376 37 376 2 380 30 l 329 41 b 268 105 275 45 259 63 l 402 790 b 488 854 411 829 431 848 l 531 858 b 534 898 537 863 540 886 b 368 895 472 897 422 895 b 191 898 315 895 252 897 b 187 858 187 893 183 865 l 234 854 b 295 790 287 848 302 830 m 290 966 b 354 983 302 966 325 973 l 588 1070 l 498 1133 l 302 1016 b 273 981 283 1004 273 994 b 290 966 273 970 279 966 "},"´":{"x_min":259.71875,"x_max":506.9375,"ha":474,"o":"m 415 976 l 273 801 b 259 768 262 787 259 775 b 276 752 259 759 266 752 b 320 780 286 752 295 759 l 506 931 l 506 947 b 498 954 504 948 501 951 b 436 979 490 963 475 979 b 415 976 429 979 419 977 "},"ì":{"x_min":149,"x_max":399,"ha":383,"o":"m 340 444 b 368 575 353 498 368 551 b 340 605 368 594 358 605 b 168 587 296 605 233 595 b 169 548 158 576 161 561 l 225 544 b 250 516 242 543 250 530 b 237 445 250 502 246 484 l 172 159 b 149 31 162 115 149 58 b 205 -13 149 5 164 -13 b 399 115 272 -13 335 33 b 367 138 394 127 386 138 b 276 69 330 97 290 69 b 262 93 265 69 262 76 b 278 172 262 105 269 136 l 340 444 m 296 931 b 275 934 290 933 282 934 b 178 902 228 934 192 911 l 172 887 l 300 736 b 335 708 318 715 326 708 b 358 723 346 708 357 716 b 357 756 360 733 361 743 l 296 931 "},"±":{"x_min":95.828125,"x_max":723.609375,"ha":732,"o":"m 484 473 l 526 715 l 458 715 l 415 473 l 175 473 l 162 405 l 404 405 l 361 165 l 430 165 l 472 405 l 712 405 l 723 473 l 484 473 m 656 93 l 108 93 l 95 25 l 644 25 l 656 93 "},"Ú":{"x_min":169.171875,"x_max":1055.5625,"ha":881,"o":"m 425 -13 b 841 409 698 -13 793 162 l 916 791 b 1002 855 923 830 945 850 l 1037 858 b 1050 869 1044 858 1048 862 l 1055 895 l 1052 898 b 905 895 990 897 936 895 b 759 898 875 895 822 897 l 756 895 l 751 869 b 759 858 750 862 755 858 l 795 855 b 856 811 838 851 856 838 b 855 791 856 804 856 798 l 776 384 b 463 43 745 229 690 43 b 319 112 400 43 351 72 b 280 237 290 148 280 191 b 298 373 280 281 290 327 l 380 794 b 466 855 388 833 411 850 l 501 858 b 513 869 508 858 512 862 l 519 895 l 516 898 b 345 895 454 897 398 895 b 177 898 293 895 240 897 l 173 895 l 169 869 b 177 858 168 862 172 858 l 212 855 b 275 811 255 851 275 840 b 273 794 275 806 273 800 l 181 327 b 170 230 175 291 170 258 b 425 -13 170 30 319 -13 m 534 966 b 598 983 547 966 569 973 l 833 1070 l 743 1133 l 547 1016 b 518 981 527 1004 518 994 b 534 966 518 970 523 966 "},"|":{"x_min":55.5625,"x_max":333.328125,"ha":285,"o":"m 116 -323 l 333 905 l 272 905 l 55 -323 l 116 -323 "},"§":{"x_min":112.46875,"x_max":685.890625,"ha":657,"o":"m 476 127 b 390 194 454 148 426 170 b 231 393 312 245 231 295 b 324 547 231 475 276 509 b 409 477 347 525 373 501 b 566 280 485 427 566 377 b 476 127 566 202 526 162 m 298 577 b 141 315 162 483 141 372 b 341 80 141 184 256 131 b 434 -50 406 41 434 0 b 293 -197 434 -133 367 -197 b 220 -104 233 -197 223 -156 b 176 -47 219 -77 212 -47 b 112 -118 124 -47 112 -88 b 281 -240 112 -170 161 -240 b 538 -2 424 -240 538 -143 b 503 97 538 33 528 63 b 658 356 638 190 658 301 b 459 591 658 487 542 541 b 363 738 392 631 363 688 b 503 869 363 820 429 869 b 578 776 563 869 576 829 b 627 719 580 750 591 719 b 685 791 677 719 685 762 b 509 912 685 844 628 912 b 259 690 345 912 259 806 b 298 577 259 652 270 615 "},"Ý":{"x_min":170.171875,"x_max":920.9375,"ha":767,"o":"m 466 105 l 519 372 b 538 430 523 395 529 415 l 781 784 b 877 855 811 826 829 851 l 913 858 b 919 898 918 865 923 893 b 808 895 879 897 838 895 b 681 898 777 895 734 897 b 679 858 677 893 676 863 l 723 854 b 730 800 756 850 758 840 l 511 465 l 505 465 l 387 800 b 416 854 373 836 369 848 l 462 858 b 465 898 466 865 468 893 b 316 895 411 897 369 895 b 172 898 265 895 211 897 b 175 858 168 891 170 865 l 195 855 b 280 759 241 848 252 833 l 408 419 b 412 394 411 409 412 400 b 408 359 412 386 411 373 l 359 105 b 273 41 352 66 330 47 l 230 37 b 227 -2 225 31 222 9 b 394 0 290 -1 340 0 b 570 -2 447 0 509 -1 b 575 37 575 2 579 30 l 527 41 b 466 105 473 45 458 63 m 563 966 b 627 983 576 966 598 973 l 862 1070 l 772 1133 l 576 1016 b 547 981 556 1004 547 994 b 563 966 547 970 552 966 "},"b":{"x_min":136.734375,"x_max":683.328125,"ha":664,"o":"m 569 419 b 290 36 569 218 395 36 b 254 184 238 36 230 88 l 301 384 b 495 545 366 461 429 545 b 569 419 537 545 569 513 m 395 811 b 430 956 415 900 430 956 b 413 970 430 966 426 970 b 219 934 376 956 276 938 l 215 901 b 222 894 215 897 216 894 l 265 891 b 294 852 283 891 294 883 b 284 783 294 837 291 813 l 141 148 b 283 -12 122 62 158 -12 b 429 38 326 -12 380 5 b 683 445 555 125 683 302 b 537 611 683 540 663 611 b 322 466 441 611 370 523 l 319 468 l 395 811 "},"q":{"x_min":112.5,"x_max":704.171875,"ha":682,"o":"m 409 -223 b 336 -285 398 -262 380 -278 l 309 -289 b 295 -301 302 -291 295 -292 l 295 -327 l 298 -330 b 444 -323 298 -330 394 -323 b 593 -326 498 -323 593 -326 l 595 -323 l 595 -295 b 587 -284 595 -288 593 -285 l 561 -280 b 515 -223 538 -277 504 -270 l 701 585 b 704 605 702 590 704 599 b 688 619 704 617 693 619 b 645 593 679 619 661 614 l 605 536 b 472 610 573 580 529 610 b 112 204 325 610 112 443 b 275 -13 112 100 144 -13 b 497 139 343 -13 411 19 l 501 137 l 409 -223 m 562 458 b 509 250 562 436 536 328 b 304 44 477 160 355 44 b 229 219 248 44 229 142 b 477 560 229 386 336 560 b 562 458 527 560 562 515 "},"Ö":{"x_min":120.828125,"x_max":991.671875,"ha":928,"o":"m 970 456 b 980 558 977 491 980 526 b 631 913 980 775 834 913 b 131 430 394 913 184 702 b 120 325 123 393 120 358 b 459 -13 120 113 261 -13 b 970 456 715 -13 916 179 m 605 866 b 856 569 755 866 856 766 b 843 430 856 526 852 480 b 495 33 794 181 648 33 b 247 337 359 33 247 143 b 259 454 247 373 251 412 b 605 866 315 744 484 866 m 858 980 b 925 913 858 944 888 913 b 991 980 961 913 991 944 b 925 1047 991 1016 961 1047 b 858 980 888 1047 858 1016 m 290 980 b 356 913 290 944 320 913 b 423 980 393 913 423 944 b 356 1047 423 1016 393 1047 b 290 980 320 1047 290 1016 "},"z":{"x_min":75.328125,"x_max":648.9375,"ha":606,"o":"m 608 617 b 533 572 576 580 555 572 b 423 592 508 572 489 578 b 276 610 357 603 315 610 b 142 437 228 610 165 519 b 179 426 151 428 164 426 b 296 504 208 490 232 504 b 451 492 358 504 411 492 b 494 493 469 492 480 492 l 161 126 b 75 10 133 94 80 29 b 94 -8 79 0 86 -6 b 126 -16 105 -12 115 -14 b 205 57 157 35 192 57 b 311 21 229 57 267 48 b 430 -13 346 0 392 -13 b 601 171 490 -13 536 21 b 567 185 593 179 583 185 b 435 93 514 100 473 93 b 243 142 364 93 371 142 b 572 503 340 248 493 405 b 648 596 607 544 635 573 l 608 617 "},"ã":{"x_min":108.625,"x_max":683.40625,"ha":675,"o":"m 500 307 b 280 65 432 182 325 65 b 219 199 233 65 219 121 b 462 569 219 346 335 569 b 548 543 491 569 522 560 b 500 307 548 543 534 396 m 569 604 b 458 613 532 608 514 613 b 108 176 310 613 108 394 b 243 -10 108 99 126 -10 b 478 189 316 -10 394 65 l 480 186 l 462 128 b 448 51 453 96 448 68 b 505 -10 448 25 458 -10 b 683 124 591 -10 647 44 b 651 146 675 135 669 146 b 573 72 613 94 587 72 b 557 92 569 72 557 75 b 570 169 557 104 565 143 l 666 601 b 569 604 633 601 597 597 m 548 786 b 483 816 522 786 501 800 b 390 855 459 836 432 855 b 254 733 330 855 290 814 l 286 726 b 368 791 310 771 332 791 b 437 761 391 791 415 776 b 518 726 462 743 487 726 b 665 850 582 726 630 767 l 633 858 b 548 786 601 800 579 786 "},"æ":{"x_min":83.140625,"x_max":1012.296875,"ha":954,"o":"m 510 463 b 494 347 510 433 505 400 b 83 112 330 334 83 300 b 273 -13 83 36 145 -13 b 490 81 349 -13 435 25 b 681 -13 510 47 555 -13 b 916 116 773 -13 859 41 l 897 130 b 717 54 842 81 792 54 b 576 226 631 54 576 120 b 584 302 576 250 578 276 b 1012 486 788 312 1012 338 b 822 609 1012 536 965 609 b 602 512 742 609 662 575 b 433 609 572 605 466 609 b 174 447 306 609 174 534 b 219 405 174 426 185 405 b 285 465 255 405 285 431 b 284 484 285 472 284 476 b 419 568 284 551 372 568 b 510 463 445 568 510 552 m 483 298 b 433 140 466 229 447 165 b 288 44 394 70 340 44 b 185 123 215 44 185 77 b 483 298 185 265 406 291 m 598 351 b 809 562 635 469 715 562 b 903 481 869 562 903 522 b 598 351 903 373 751 359 "},"®":{"x_min":47.21875,"x_max":831.953125,"ha":879,"o":"m 440 773 b 788 425 633 773 788 618 b 440 76 788 232 631 76 b 90 425 245 76 90 233 b 440 773 90 618 245 773 m 440 32 b 831 425 656 32 831 208 b 440 816 831 641 656 816 b 47 425 223 816 47 641 b 440 32 47 209 222 32 m 509 516 b 400 427 509 430 443 427 l 400 593 b 438 597 406 594 423 597 b 509 516 486 597 509 563 m 579 516 b 447 620 579 558 552 620 b 287 613 345 620 316 618 l 287 598 b 301 590 287 594 291 591 l 323 591 b 329 576 327 591 329 584 l 329 266 b 318 255 329 257 326 255 l 301 255 b 287 248 291 255 287 254 l 287 232 l 363 234 b 441 232 383 234 441 232 l 441 247 b 426 255 441 254 437 255 l 409 255 b 400 266 400 255 400 259 l 400 398 b 437 393 406 398 431 397 l 504 283 b 590 230 520 247 550 230 b 622 236 597 230 608 232 l 622 254 b 566 297 601 254 584 266 l 500 411 b 579 516 500 411 579 444 "},"É":{"x_min":15.28125,"x_max":768.0625,"ha":731,"o":"m 768 897 b 762 901 768 899 766 901 b 698 895 738 897 730 895 l 361 895 b 193 898 309 895 255 897 l 190 895 l 184 867 b 193 858 183 863 183 858 l 231 855 b 290 812 272 851 290 840 b 288 792 290 805 290 799 l 154 99 b 73 40 145 60 126 44 l 33 37 b 20 27 25 37 22 31 l 15 0 l 18 -3 b 187 0 80 -1 136 0 l 473 0 b 643 -3 537 0 643 -3 l 737 228 l 697 235 b 481 53 651 135 583 53 l 301 53 b 258 84 276 53 258 59 b 261 99 258 88 259 94 l 329 448 l 498 448 b 555 406 538 448 555 437 b 555 395 555 402 555 399 l 552 360 b 559 349 551 356 552 349 l 588 349 l 595 353 b 613 474 601 409 608 447 b 643 599 618 502 627 544 l 638 605 l 609 605 b 597 594 604 605 598 599 l 587 559 b 509 501 575 520 555 501 l 340 501 l 395 792 b 454 840 402 826 422 840 l 593 840 b 718 688 693 840 706 784 l 756 695 b 768 897 762 752 768 885 m 381 966 b 445 983 394 966 416 973 l 680 1070 l 590 1133 l 394 1016 b 365 981 375 1003 365 994 b 381 966 365 970 370 966 "},"~":{"x_min":87.5,"x_max":661.109375,"ha":624,"o":"m 87 290 l 104 286 b 273 386 147 347 225 386 b 465 295 345 386 391 295 b 661 462 498 295 591 313 l 638 470 b 484 377 595 401 523 377 b 295 468 422 377 359 468 b 87 290 212 468 120 380 "},"³":{"x_min":159.71875,"x_max":511.109375,"ha":426,"o":"m 430 866 b 308 765 419 809 370 773 l 304 732 b 333 734 315 733 323 734 b 426 666 363 734 426 726 b 425 645 426 661 426 654 b 295 532 405 550 322 532 b 231 557 252 532 240 543 b 200 576 225 566 218 576 b 159 545 186 576 159 563 b 275 497 159 518 225 497 b 508 657 384 497 490 561 b 511 682 509 665 511 675 b 420 779 511 745 461 775 b 509 873 465 801 501 833 b 511 888 511 879 511 883 b 408 955 511 930 473 955 b 227 858 287 955 231 882 b 255 833 227 854 229 833 b 298 873 286 833 294 857 b 384 922 306 907 356 922 b 431 882 408 922 431 912 b 430 866 431 876 430 872 "},"₧":{"x_min":22,"x_max":1246.609375,"ha":1236,"o":"m 366 759 b 438 775 390 767 416 775 b 572 646 505 775 572 752 b 566 585 572 628 570 609 b 359 392 541 450 469 392 b 303 399 331 392 317 397 l 366 759 m 147 89 b 70 35 141 54 120 35 l 37 35 b 26 25 30 35 27 30 l 22 1 l 23 -1 b 184 1 23 -1 140 1 b 342 -1 233 1 342 -1 l 345 1 l 348 25 b 340 35 349 30 345 35 l 308 35 b 247 73 265 35 247 47 b 248 89 247 79 248 83 l 297 365 b 358 351 312 356 324 351 b 619 489 490 351 573 415 l 694 489 l 627 111 b 622 65 623 94 622 79 b 695 -13 622 10 648 -13 b 827 35 739 -13 782 3 l 821 0 b 851 3 835 3 844 3 b 874 0 859 3 867 3 b 986 -12 905 -7 943 -12 b 1209 143 1057 -12 1186 18 b 1211 170 1210 152 1211 162 b 1054 327 1211 251 1139 287 b 971 406 999 354 971 368 b 973 425 971 412 971 418 b 1092 518 985 496 1043 518 b 1206 369 1120 518 1192 503 l 1235 370 l 1246 521 b 1099 555 1225 535 1161 555 b 892 405 999 555 906 490 b 888 371 889 392 888 381 b 1010 249 888 305 935 283 b 1121 134 1092 211 1121 179 b 1118 115 1121 129 1120 120 b 989 22 1107 51 1038 22 b 898 58 943 22 909 46 b 871 155 877 83 871 125 b 873 179 871 165 871 173 l 844 177 l 832 80 b 753 57 803 62 780 57 b 722 101 730 57 722 71 b 730 171 722 118 725 141 l 786 489 l 903 489 b 936 504 916 489 934 493 l 941 529 b 932 538 941 535 938 538 l 795 538 l 830 730 l 753 706 l 748 681 b 645 539 735 598 709 549 b 665 609 655 563 662 586 b 669 646 667 620 669 634 b 455 817 669 721 630 817 b 316 811 426 817 381 816 b 163 805 255 809 181 805 l 158 781 b 166 773 158 777 158 773 b 213 774 172 773 202 774 b 260 734 231 774 260 768 b 259 718 260 730 259 724 l 147 89 "},"¡":{"x_min":41.671875,"x_max":333.328125,"ha":315,"o":"m 104 -320 b 198 -219 136 -320 184 -294 b 206 -106 205 -173 206 -141 l 206 -44 b 209 48 206 -19 206 11 b 234 311 218 156 233 281 l 234 313 b 219 327 234 320 233 327 b 194 300 205 327 198 316 b 127 48 188 281 170 198 b 44 -219 91 -70 61 -129 b 41 -247 43 -229 41 -237 b 104 -320 41 -297 72 -320 m 331 547 b 333 558 333 550 333 554 b 270 620 333 594 308 620 b 184 547 230 620 191 587 b 183 533 183 541 183 537 b 245 472 183 498 209 472 b 331 547 286 472 325 505 "},"[":{"x_min":73.609375,"x_max":588.890625,"ha":464,"o":"m 588 956 l 290 956 l 73 -277 l 372 -277 l 381 -216 l 179 -216 l 375 897 l 579 897 l 588 956 "},"L":{"x_min":22.21875,"x_max":718.0625,"ha":700,"o":"m 475 53 l 322 53 b 269 103 288 53 269 72 b 272 123 269 109 270 116 l 404 797 b 488 855 411 835 433 849 l 523 858 b 536 869 530 858 534 862 l 541 895 l 538 898 b 368 895 476 897 422 895 b 200 898 316 895 262 897 l 195 895 l 191 869 b 200 858 190 862 194 858 l 234 855 b 297 813 276 851 297 841 b 295 797 297 808 295 802 l 159 99 b 80 40 151 51 134 44 l 40 37 b 27 26 34 37 29 33 l 22 0 l 25 -3 b 194 0 87 -1 141 0 l 479 0 b 637 -3 515 0 637 -3 b 718 228 658 74 688 156 l 679 235 b 475 53 633 135 576 53 "}," ":{"x_min":0,"x_max":0,"ha":347},"%":{"x_min":141.953125,"x_max":860.015625,"ha":885,"o":"m 253 544 b 379 740 253 625 312 740 b 441 656 404 740 441 725 b 316 452 441 576 391 452 b 253 544 290 452 253 472 m 605 715 b 457 750 580 715 532 715 b 365 786 443 767 404 786 b 182 563 264 786 182 670 b 308 412 182 491 221 412 b 485 658 425 412 485 568 b 480 692 485 669 483 681 b 593 663 507 677 560 663 b 736 690 633 663 682 667 l 141 -6 l 193 -19 l 860 762 l 814 790 b 605 715 757 729 664 715 m 539 126 b 664 -26 539 54 579 -26 b 840 221 779 -26 840 126 b 722 347 840 320 778 347 b 539 126 619 347 539 232 m 610 107 b 736 302 610 186 668 302 b 798 218 755 302 798 290 b 672 14 798 141 750 14 b 610 107 647 14 610 35 "},"P":{"x_min":22.21875,"x_max":797.21875,"ha":693,"o":"m 159 98 b 75 40 152 59 129 44 l 40 37 b 27 26 33 37 29 33 l 22 0 l 25 -2 b 195 0 73 -1 140 0 b 377 -2 248 0 315 -1 l 380 0 l 386 26 b 377 37 387 33 383 37 l 329 40 b 265 80 284 41 265 53 b 268 98 265 86 266 91 l 327 405 b 426 391 355 396 379 391 b 793 675 669 391 770 557 b 797 718 794 687 797 703 b 544 908 797 801 750 908 b 369 896 509 908 423 896 b 200 898 316 896 248 897 l 195 896 l 190 866 b 197 858 188 861 191 858 l 248 855 b 295 810 268 854 295 843 b 295 797 295 805 295 801 l 159 98 m 404 797 b 525 861 411 837 429 861 b 677 721 602 861 677 836 b 670 650 677 700 675 676 b 429 439 640 500 558 439 b 336 446 395 439 350 441 l 404 797 "},"À":{"x_min":2.78125,"x_max":925.21875,"ha":926,"o":"m 223 109 l 340 311 b 391 334 350 329 359 334 l 669 334 l 704 100 b 704 86 704 94 704 90 b 637 40 704 56 681 43 l 598 37 b 587 26 593 37 588 33 l 581 0 l 583 -2 b 761 0 633 -1 709 0 b 916 -2 815 0 868 -1 l 919 0 l 925 26 b 913 37 926 33 920 37 l 900 38 b 816 119 847 44 825 65 l 688 872 b 661 913 684 898 680 913 b 606 863 641 913 629 900 l 169 141 b 20 37 116 55 79 41 b 8 26 13 37 9 33 l 2 0 l 4 -2 b 127 0 54 -1 76 0 b 301 -2 181 0 252 -1 l 305 0 l 309 26 b 301 37 311 33 306 37 l 263 40 b 212 76 229 43 212 56 b 223 109 212 86 216 97 m 426 393 b 393 401 404 393 393 394 b 397 411 393 404 394 406 l 598 763 l 601 763 l 658 393 l 426 393 m 830 1000 b 815 1023 830 1006 825 1015 l 673 1140 l 552 1077 l 748 990 b 804 973 770 980 790 973 b 830 1000 825 973 830 991 "},"_":{"x_min":-30.5625,"x_max":643.0625,"ha":675,"o":"m 643 -152 l -20 -152 l -30 -213 l 631 -213 l 643 -152 "},"ñ":{"x_min":123.515625,"x_max":722.125,"ha":719,"o":"m 601 172 l 654 393 b 672 499 665 442 672 474 b 580 610 672 582 634 610 b 320 431 508 610 448 581 l 319 432 l 322 444 b 352 575 334 499 352 551 b 324 606 352 594 342 606 b 149 587 280 606 215 596 b 151 549 140 576 142 561 l 206 544 b 231 517 223 543 231 531 b 219 446 231 503 227 485 l 140 100 b 123 24 134 72 123 37 b 183 -13 123 0 138 -13 b 245 100 236 -13 234 47 l 299 331 b 513 526 387 444 463 526 b 562 476 542 526 562 519 b 544 382 562 457 555 429 l 491 160 b 467 32 480 115 467 58 b 524 -13 467 6 483 -13 b 722 115 591 -13 658 33 b 690 139 717 128 709 139 b 599 69 654 97 613 69 b 586 93 588 69 586 76 b 601 172 586 106 592 136 m 605 792 b 540 822 579 792 558 806 b 447 861 516 842 488 861 b 311 737 387 861 347 819 l 342 731 b 424 797 366 776 388 797 b 494 767 448 797 472 782 b 574 731 519 747 544 731 b 722 856 638 731 687 772 l 690 864 b 605 792 658 806 636 792 "},"+":{"x_min":143.0625,"x_max":704.171875,"ha":732,"o":"m 463 355 l 505 597 l 437 597 l 395 355 l 154 355 l 143 287 l 383 287 l 340 47 l 408 47 l 451 287 l 691 287 l 704 355 l 463 355 "},"½":{"x_min":87.171875,"x_max":956.609375,"ha":917,"o":"m 328 794 b 338 735 346 794 346 781 l 296 524 b 244 472 291 493 266 472 l 195 472 b 184 467 189 472 184 469 l 177 438 b 314 439 177 438 260 439 b 433 438 360 439 433 438 l 438 465 b 431 472 439 471 435 472 l 392 472 b 367 524 374 472 362 493 l 438 888 l 416 888 b 239 810 348 849 309 833 l 245 772 b 328 794 267 781 312 794 m 637 200 b 683 233 651 200 677 211 b 683 266 684 244 680 255 b 764 307 687 284 705 307 b 823 223 789 307 834 289 b 698 66 808 148 770 116 b 538 -110 623 15 551 -43 l 824 -110 b 876 20 837 -69 856 -21 l 844 28 b 745 -65 821 -11 788 -65 l 633 -65 b 749 59 641 -22 683 16 b 905 226 837 115 892 161 b 778 340 921 314 846 340 b 608 233 667 340 614 269 b 637 200 605 215 620 200 m 901 835 l 87 -75 l 144 -86 l 956 824 l 901 835 "},"Æ":{"x_min":3.09375,"x_max":1201.71875,"ha":1151,"o":"m 628 0 l 1079 0 b 1158 231 1098 77 1129 159 l 1119 238 b 915 53 1073 138 1016 53 l 741 53 b 703 102 712 53 696 65 l 771 456 l 907 456 b 964 395 953 456 962 434 l 962 352 b 972 342 962 347 964 342 l 1003 342 l 1005 347 b 1021 480 1008 370 1012 433 b 1058 612 1030 526 1047 577 b 1054 617 1058 615 1057 617 l 1025 617 b 1012 606 1019 617 1015 612 l 996 565 b 916 503 979 526 964 503 l 780 503 l 835 778 b 894 840 840 810 862 840 l 1028 840 b 1148 674 1129 840 1137 770 l 1189 681 b 1201 895 1190 738 1194 820 l 905 895 l 803 895 l 569 897 l 566 895 l 561 867 b 569 858 560 862 561 858 l 610 855 b 637 801 636 853 660 834 l 160 117 b 54 40 115 55 105 44 l 23 37 b 8 26 15 35 10 33 l 3 0 l 4 -3 b 125 0 4 -3 79 0 b 268 -3 178 0 268 -3 l 269 0 l 275 28 b 268 37 275 31 273 37 l 230 40 b 215 94 183 42 180 44 l 407 369 l 644 369 l 591 102 b 507 40 585 63 562 44 l 471 37 b 458 24 464 37 460 31 l 453 0 l 455 -3 b 628 0 455 -3 580 0 m 443 423 l 726 830 b 728 798 732 827 730 815 l 654 423 l 443 423 "},"₣":{"x_min":27.78125,"x_max":712.5,"ha":608,"o":"m 511 499 l 351 499 l 386 696 b 444 741 391 732 413 741 l 541 741 b 662 567 633 741 659 667 l 700 572 l 712 795 l 455 795 l 347 795 b 170 798 329 795 170 798 l 168 795 l 162 770 b 172 759 161 763 165 759 l 212 759 b 276 721 261 759 276 750 b 273 696 276 714 276 706 l 238 499 l 119 499 l 109 445 l 229 445 l 218 379 l 98 379 l 88 325 l 208 325 l 169 100 b 81 39 161 57 137 39 l 45 39 b 31 28 38 39 33 35 l 27 1 l 29 -1 b 204 1 29 -1 150 1 b 383 -1 254 1 383 -1 l 386 1 l 391 28 b 381 39 393 35 388 39 l 345 39 b 279 85 297 39 279 55 b 280 100 279 89 280 94 l 320 325 l 480 325 l 490 379 l 330 379 l 341 445 l 501 445 l 511 499 "},"Ë":{"x_min":15.21875,"x_max":770.9375,"ha":731,"o":"m 768 897 b 762 901 768 899 766 901 b 698 895 738 897 730 895 l 361 895 b 193 898 309 895 255 897 l 190 895 l 184 867 b 193 858 183 863 183 858 l 231 855 b 290 812 272 851 290 840 b 288 792 290 805 290 799 l 154 99 b 73 40 145 60 126 44 l 33 37 b 20 27 24 37 22 31 l 15 0 l 18 -3 b 187 0 80 -1 136 0 l 473 0 b 643 -3 537 0 643 -3 l 737 228 l 697 235 b 481 53 651 135 583 53 l 301 53 b 258 84 276 53 258 59 b 261 99 258 88 259 94 l 329 448 l 498 448 b 555 406 538 448 555 437 b 555 395 555 402 555 399 l 552 360 b 559 349 551 356 552 349 l 588 349 l 595 353 b 613 474 601 409 608 447 b 643 599 618 502 627 544 l 638 605 l 609 605 b 597 594 604 605 598 599 l 587 559 b 509 501 574 520 555 501 l 340 501 l 395 792 b 454 840 402 826 422 840 l 593 840 b 718 688 693 840 707 784 l 757 695 b 768 897 762 752 768 885 m 644 1031 b 643 1020 643 1027 643 1023 b 695 967 643 990 665 967 b 769 1031 730 967 763 997 b 770 1044 770 1034 770 1040 b 719 1094 770 1072 750 1094 b 644 1031 684 1094 651 1065 m 380 1030 b 379 1019 380 1026 379 1022 b 431 967 379 990 401 967 b 506 1030 466 967 499 995 b 508 1042 506 1034 508 1038 b 456 1092 508 1072 487 1092 b 380 1030 422 1092 387 1065 "},"'":{"x_min":213.890625,"x_max":343.0625,"ha":264,"o":"m 213 593 l 252 598 b 343 848 252 598 338 826 l 343 858 b 302 894 343 876 333 894 b 219 825 261 894 223 855 b 213 593 216 812 213 593 "},"ª":{"x_min":169.59375,"x_max":488.953125,"ha":383,"o":"m 414 497 b 482 527 438 497 467 513 l 474 550 b 457 543 469 545 462 543 b 448 561 450 543 448 548 b 457 622 448 573 450 593 l 481 726 b 488 783 487 748 488 766 b 379 884 488 865 432 884 b 222 783 325 884 234 838 b 220 773 222 780 220 776 b 248 748 220 758 232 748 b 289 777 272 748 286 766 b 290 788 290 781 290 784 b 289 794 290 791 290 793 l 289 798 b 291 812 289 801 290 806 b 370 850 295 834 326 850 b 421 790 393 850 421 843 b 414 734 421 775 419 756 l 333 713 b 172 594 247 691 186 652 b 169 570 170 586 169 577 b 250 497 169 525 202 497 b 372 551 291 497 318 509 b 370 545 370 550 370 548 b 414 497 370 522 383 497 m 405 697 l 379 587 b 286 541 337 555 312 541 b 239 580 251 541 239 558 b 240 598 239 586 239 591 b 405 697 251 641 287 666 "},"ð":{"x_min":104.171875,"x_max":725,"ha":664,"o":"m 341 37 b 215 218 265 37 215 109 b 227 312 215 247 219 279 b 462 565 251 418 320 565 b 587 498 520 565 565 538 b 588 476 587 491 588 484 b 569 309 588 422 581 365 b 341 37 518 84 406 37 m 113 288 b 104 206 108 261 104 233 b 305 -16 104 88 165 -16 b 686 329 462 -16 631 94 b 704 476 698 380 704 430 b 588 818 704 613 656 727 l 569 841 l 725 933 l 705 977 l 534 879 b 409 976 495 918 452 949 l 381 947 b 456 866 408 923 433 897 l 473 843 l 305 745 l 325 701 l 500 802 b 577 594 537 738 563 668 b 475 613 547 608 511 613 b 113 288 361 613 169 529 "},"T":{"x_min":148.21875,"x_max":912.328125,"ha":756,"o":"m 276 895 b 252 916 255 895 252 906 b 254 927 252 920 252 925 b 219 933 240 933 230 933 b 148 719 201 865 178 793 b 187 712 157 712 174 712 b 330 841 235 823 256 841 l 440 841 b 495 787 494 841 501 826 l 363 105 b 277 41 355 66 334 47 l 234 37 b 231 -2 228 31 226 9 b 398 0 294 -1 344 0 b 574 -2 451 0 513 -1 b 579 37 579 2 583 30 l 531 41 b 470 105 477 45 462 62 l 602 783 b 677 841 612 830 630 841 l 766 841 b 845 712 838 841 844 819 b 887 719 859 712 870 712 b 912 931 890 790 898 863 b 876 927 894 931 885 931 b 840 895 874 919 867 895 l 276 895 "},"Þ":{"x_min":11.109375,"x_max":750.1875,"ha":696,"o":"m 286 798 l 150 99 b 65 40 141 60 120 44 l 29 37 b 16 26 23 37 18 33 l 11 0 l 13 -3 b 186 0 13 -3 138 0 b 354 -3 238 0 354 -3 l 356 0 l 362 26 b 354 37 363 33 358 37 l 318 40 b 258 99 268 44 250 56 l 281 220 b 380 210 300 213 334 210 b 744 476 618 210 723 372 b 498 723 763 574 745 723 b 379 720 473 723 426 723 l 393 798 b 476 855 401 837 422 851 l 513 858 b 526 869 519 858 525 862 l 530 895 l 529 897 b 356 895 529 897 402 895 b 188 897 304 895 188 897 l 186 895 l 180 869 b 188 858 179 862 183 858 l 223 855 b 286 798 275 851 293 840 m 368 665 b 488 680 397 673 463 680 b 626 476 568 680 658 642 b 381 254 590 297 479 254 b 288 260 331 254 300 256 l 368 665 "},"j":{"x_min":-108.328125,"x_max":419.4375,"ha":360,"o":"m 286 791 b 352 725 286 755 316 725 b 419 791 388 725 419 755 b 352 858 419 827 388 858 b 286 791 316 858 286 827 m 347 444 b 375 575 359 500 375 551 b 347 605 375 594 365 605 b 175 587 302 605 240 595 b 176 548 165 576 168 561 l 231 544 b 256 516 248 543 256 530 b 244 445 256 502 252 484 l 201 244 b 133 -77 172 108 158 20 b 30 -222 102 -197 55 -222 b -68 -162 -8 -222 0 -162 b -108 -205 -87 -162 -108 -176 b 5 -272 -108 -250 -55 -272 b 323 325 179 -272 255 -13 l 347 444 "},"1":{"x_min":169,"x_max":570,"ha":608,"o":"m 411 658 b 432 626 427 658 432 647 b 428 582 432 615 431 600 l 335 104 b 268 40 327 64 321 40 l 187 40 b 173 29 177 40 175 33 l 169 -1 l 360 1 l 550 -1 l 556 29 b 547 40 558 37 551 40 l 474 40 b 429 70 440 40 429 47 b 434 104 429 79 432 90 l 570 802 l 543 802 b 280 683 464 752 407 718 l 284 639 b 411 658 316 654 386 658 "},"ä":{"x_min":108.625,"x_max":684.28125,"ha":675,"o":"m 500 304 b 280 62 432 179 325 62 b 219 195 233 62 219 118 b 462 566 219 343 335 566 b 548 540 491 566 522 556 b 500 304 548 540 534 393 m 570 601 b 458 609 532 605 514 609 b 108 173 310 609 108 391 b 243 -13 108 95 126 -13 b 478 186 316 -13 394 62 l 480 183 l 462 125 b 448 48 453 93 448 65 b 505 -13 448 22 458 -13 b 684 120 592 -13 648 41 b 652 143 675 131 670 143 b 573 69 614 91 587 69 b 557 88 569 69 557 72 b 571 166 557 101 565 140 l 667 598 b 570 601 634 598 597 594 m 540 795 b 604 731 540 761 569 731 b 669 795 639 731 669 761 b 604 859 669 830 639 859 b 540 795 569 859 540 830 m 318 795 b 382 731 318 761 347 731 b 446 795 416 731 446 761 b 382 859 446 830 416 859 b 318 795 347 859 318 830 "},"<":{"x_min":120.828125,"x_max":708.328125,"ha":676,"o":"m 227 331 l 695 491 l 708 561 l 131 365 l 120 298 l 627 101 l 638 170 l 227 331 "},"£":{"x_min":25.703125,"x_max":712,"ha":608,"o":"m 227 118 b 213 116 223 118 218 116 l 222 122 b 362 398 280 161 329 236 l 363 405 l 545 405 l 555 461 l 373 461 l 390 538 b 545 740 412 652 484 740 b 605 709 575 740 590 724 b 645 684 616 695 627 684 b 711 737 677 684 705 704 b 618 798 720 783 648 798 b 429 726 548 798 484 773 b 276 472 343 655 298 583 l 273 461 l 183 461 l 172 405 l 262 405 l 256 369 b 133 106 238 280 209 173 b 105 84 122 97 113 90 b 26 9 65 65 31 40 b 55 -23 22 -7 37 -23 b 120 27 79 -23 112 -8 b 186 63 123 41 140 63 b 281 27 222 63 251 47 b 405 -16 316 5 354 -16 b 611 99 502 -16 573 31 l 588 118 b 441 52 545 72 480 52 b 368 79 405 52 387 63 b 227 118 341 98 309 118 "},"¹":{"x_min":193,"x_max":454.3125,"ha":426,"o":"m 344 862 b 352 804 361 862 361 849 l 312 593 b 259 542 305 562 281 542 l 209 542 b 198 535 204 542 199 537 l 193 506 b 329 507 193 506 276 507 b 448 506 376 507 448 506 l 454 535 b 447 542 455 540 451 542 l 408 542 b 383 593 388 542 376 562 l 454 956 l 431 956 b 255 878 363 918 324 901 l 261 840 b 344 862 283 850 326 862 "},"t":{"x_min":141.671875,"x_max":509.6875,"ha":426,"o":"m 262 595 l 188 591 b 150 568 162 588 152 579 b 144 544 148 563 144 547 b 152 541 144 541 148 541 l 250 541 l 161 163 b 141 50 150 119 141 76 b 209 -13 141 0 175 -13 b 411 129 266 -13 351 27 b 380 155 406 147 397 155 b 269 69 316 83 291 69 b 251 88 265 69 251 72 b 266 176 251 101 255 131 l 352 541 l 488 541 b 502 595 505 548 518 584 l 365 595 l 379 658 b 397 741 384 681 397 725 b 341 779 397 765 386 779 b 280 665 291 779 294 718 l 262 595 "},"¬":{"x_min":120.828125,"x_max":843.0625,"ha":778,"o":"m 704 184 l 777 184 l 843 556 l 131 556 l 120 495 l 758 495 l 704 184 "},"ù":{"x_min":117.546875,"x_max":745.234375,"ha":724,"o":"m 503 931 b 482 934 498 933 489 934 b 385 902 435 934 399 911 l 380 887 l 507 736 b 542 708 525 715 534 708 b 566 723 553 708 564 716 b 564 756 567 733 568 743 l 503 931 m 702 488 b 720 572 706 512 720 555 b 661 609 720 595 706 609 b 598 495 609 609 611 548 l 557 343 b 317 69 455 168 386 69 b 275 120 292 69 275 83 b 288 209 275 143 278 172 l 348 436 b 377 563 359 480 377 537 b 327 609 377 590 368 609 b 117 480 260 609 181 562 b 149 456 121 468 130 456 b 245 526 185 498 231 526 b 259 502 255 526 259 519 b 241 423 259 490 249 459 l 180 190 b 166 97 170 154 166 123 b 259 -13 166 18 210 -13 b 535 216 367 -13 436 72 l 539 213 l 524 159 b 500 31 511 115 500 58 b 552 -13 500 5 510 -13 b 745 115 618 -13 681 33 b 713 138 741 127 732 138 b 623 69 677 97 636 69 b 609 93 613 69 609 76 b 624 172 609 105 616 136 l 702 488 "},"W":{"x_min":205.5625,"x_max":1383.328125,"ha":1192,"o":"m 780 717 b 697 613 755 717 730 683 l 547 299 l 481 153 l 465 302 l 408 794 b 406 830 405 809 404 820 b 445 858 409 848 422 858 l 477 858 b 491 869 481 858 491 859 l 491 894 l 490 897 b 334 895 490 897 402 895 b 209 897 281 895 209 897 l 205 894 l 205 867 b 222 858 205 859 211 858 l 234 858 b 297 780 273 858 291 815 l 391 16 b 427 -16 394 -4 408 -16 b 468 16 444 -16 459 -1 l 705 513 b 727 548 713 535 722 548 b 738 509 733 548 737 535 l 795 16 b 831 -16 798 -3 815 -16 b 872 15 848 -16 863 -3 l 1248 788 b 1345 858 1276 842 1305 858 l 1366 858 b 1383 869 1366 858 1383 858 l 1383 895 l 1381 897 b 1263 895 1381 897 1309 895 b 1131 897 1206 895 1131 897 l 1127 894 l 1127 867 b 1136 858 1127 862 1130 858 l 1166 858 b 1202 830 1193 858 1202 847 b 1191 790 1202 817 1197 801 l 956 298 l 883 152 l 868 287 l 823 674 b 780 717 820 705 801 717 "},"ï":{"x_min":148.703125,"x_max":509.8125,"ha":383,"o":"m 340 444 b 368 575 352 498 368 551 b 340 605 368 594 358 605 b 168 587 295 605 233 595 b 169 548 158 576 161 561 l 225 544 b 250 516 241 543 250 530 b 237 445 250 502 245 484 l 172 159 b 148 31 162 115 148 58 b 205 -13 148 5 163 -13 b 398 115 272 -13 334 33 b 366 138 394 127 386 138 b 276 69 330 97 290 69 b 262 93 265 69 262 76 b 277 172 262 105 269 136 l 340 444 m 382 795 b 445 731 382 761 411 731 b 509 795 480 731 509 761 b 445 859 509 830 480 859 b 382 795 411 859 382 830 m 159 795 b 223 731 159 761 188 731 b 287 795 258 731 287 761 b 223 859 287 830 258 859 b 159 795 188 859 159 830 "},">":{"x_min":86.109375,"x_max":673.609375,"ha":676,"o":"m 565 327 l 97 168 l 86 98 l 662 294 l 673 361 l 166 558 l 154 488 l 565 327 "},"v":{"x_min":118.0625,"x_max":672.21875,"ha":629,"o":"m 263 394 l 298 16 b 323 -16 300 -2 306 -16 b 368 19 338 -16 351 -2 l 584 325 b 672 527 658 429 672 488 b 606 609 672 576 643 609 b 555 561 580 609 555 590 b 586 461 555 513 586 498 b 544 348 586 429 570 384 l 420 175 l 379 122 l 377 193 l 355 448 b 341 579 351 494 350 554 b 304 609 334 597 325 609 b 118 443 247 609 163 575 b 155 423 126 431 141 423 b 233 525 181 473 216 525 b 263 394 255 525 252 502 "},"û":{"x_min":117.546875,"x_max":745.328125,"ha":724,"o":"m 567 906 l 498 906 b 318 727 445 843 380 783 l 342 708 b 517 833 403 745 455 780 b 638 708 553 783 592 748 l 671 727 b 567 906 632 783 595 841 m 702 488 b 720 572 706 512 720 555 b 661 609 720 595 706 609 b 598 495 609 609 611 548 l 557 343 b 317 69 455 168 386 69 b 275 120 292 69 275 83 b 288 209 275 143 278 172 l 348 436 b 377 563 359 480 377 537 b 327 609 377 590 368 609 b 117 480 260 609 181 562 b 149 456 121 468 130 456 b 245 526 185 498 231 526 b 259 502 255 526 259 519 b 241 423 259 490 249 459 l 180 190 b 166 97 170 154 166 123 b 259 -13 166 18 210 -13 b 535 216 367 -13 436 72 l 539 213 l 524 159 b 500 31 511 115 500 58 b 552 -13 500 5 510 -13 b 745 115 618 -13 681 33 b 713 138 741 127 732 138 b 623 69 677 97 636 69 b 609 93 613 69 609 76 b 624 172 609 105 616 136 l 702 488 "},"Ò":{"x_min":120.828125,"x_max":980.5625,"ha":928,"o":"m 970 456 b 980 558 977 491 980 526 b 631 913 980 775 834 913 b 131 430 394 913 184 702 b 120 325 123 393 120 358 b 459 -13 120 113 261 -13 b 970 456 715 -13 916 179 m 605 866 b 856 569 755 866 856 766 b 843 430 856 526 852 480 b 495 33 794 181 648 33 b 247 337 359 33 247 143 b 259 454 247 373 251 412 b 605 866 315 744 484 866 m 811 993 b 795 1016 811 1000 805 1008 l 654 1133 l 533 1070 l 729 983 b 784 966 751 973 770 966 b 811 993 805 966 811 984 "},"&":{"x_min":95.859375,"x_max":1028,"ha":979,"o":"m 431 472 b 582 183 440 442 522 287 b 343 34 497 88 441 34 b 205 169 266 34 205 72 b 431 472 205 351 345 429 m 769 772 b 618 894 769 845 707 894 b 370 677 490 894 370 808 b 408 523 370 636 381 588 b 95 167 187 409 95 309 b 325 -12 95 38 193 -12 b 608 136 441 -12 529 48 l 640 83 b 782 -12 689 -5 740 -12 b 943 130 830 -12 894 31 l 925 141 b 804 62 886 86 850 62 b 714 154 780 62 746 92 l 678 216 b 971 549 864 444 898 549 l 1009 549 b 1023 561 1015 549 1022 552 l 1028 583 l 1026 586 b 904 583 1026 586 951 583 b 784 586 857 583 784 586 l 782 583 l 778 559 b 782 549 776 555 776 549 l 822 549 b 839 534 834 549 839 544 b 651 263 839 498 768 399 b 520 516 540 462 533 491 b 769 772 629 573 769 669 m 602 847 b 678 774 651 847 678 820 b 500 572 678 751 678 677 b 472 699 482 627 472 669 b 602 847 472 784 548 847 "},"Ð":{"x_min":22.21875,"x_max":962.5,"ha":926,"o":"m 268 101 l 325 398 l 502 398 l 513 452 l 336 452 l 404 797 b 526 851 413 845 461 851 b 837 519 758 851 837 693 b 825 394 837 477 831 434 b 402 44 769 113 590 44 b 265 83 291 44 265 52 b 268 101 265 88 266 94 m 26 25 l 22 0 l 25 -2 b 194 0 87 -1 140 0 b 434 -2 245 0 297 -2 b 954 427 623 -2 887 86 b 962 520 959 459 962 490 b 586 898 962 734 809 898 b 368 895 501 898 422 895 b 200 898 316 895 262 897 l 195 895 l 191 869 b 201 858 190 862 194 858 l 237 855 b 298 818 280 851 298 845 b 295 794 298 811 297 802 l 229 452 l 137 452 l 126 398 l 218 398 l 161 102 b 79 40 151 58 126 43 l 38 37 b 26 25 33 37 27 31 "},"I":{"x_min":26.140625,"x_max":537.75,"ha":389,"o":"m 295 790 l 161 105 b 75 41 154 66 131 47 l 31 37 b 29 -2 26 31 23 9 b 195 0 91 -1 141 0 b 372 -2 248 0 311 -1 b 376 37 376 2 380 30 l 329 41 b 268 105 275 45 259 63 l 402 790 b 488 854 411 829 431 848 l 531 858 b 534 898 537 863 540 886 b 368 895 472 897 422 895 b 191 898 315 895 252 897 b 187 858 187 893 183 865 l 234 854 b 295 790 287 848 302 830 "},"G":{"x_min":115.28125,"x_max":980.5625,"ha":922,"o":"m 676 913 b 125 426 447 913 184 731 b 115 337 118 395 115 365 b 490 -13 115 138 255 -13 b 870 115 647 -13 763 34 b 856 154 858 127 854 138 l 888 315 b 959 376 897 363 920 372 b 973 387 966 377 972 380 l 980 423 l 977 426 b 854 423 937 425 908 423 b 686 426 802 423 748 425 l 683 423 l 676 387 b 684 376 675 380 679 376 l 718 373 b 781 331 762 369 781 361 b 780 315 781 327 780 320 l 738 102 b 530 36 684 58 602 36 b 237 370 326 36 237 206 b 245 454 237 398 240 426 b 648 862 293 697 468 862 b 901 629 841 862 890 748 l 943 637 b 955 851 943 695 945 751 b 676 913 875 851 838 913 "},"`":{"x_min":297.21875,"x_max":488.890625,"ha":544,"o":"m 418 969 b 398 973 413 972 405 973 b 302 940 348 973 318 948 l 297 926 l 429 775 b 465 747 447 754 455 747 b 487 762 475 747 486 755 b 488 775 488 766 488 770 b 484 795 488 780 487 787 l 418 969 "},"·":{"x_min":163.890625,"x_max":318.0625,"ha":351,"o":"m 229 291 b 316 366 270 291 309 326 b 318 377 316 370 318 375 b 255 441 318 413 288 441 b 165 366 213 441 173 405 b 163 352 165 362 163 356 b 229 291 163 320 187 291 "},"r":{"x_min":123.609375,"x_max":595.828125,"ha":496,"o":"m 306 395 l 318 444 b 341 569 330 498 341 545 b 312 605 341 591 330 605 b 145 587 268 605 211 595 b 147 548 136 576 138 561 l 202 544 b 227 516 219 543 227 530 b 218 445 227 502 227 484 l 140 100 b 123 23 134 69 123 45 b 176 -13 123 0 136 -13 b 238 100 225 -13 226 45 l 280 262 b 456 512 347 383 425 512 b 486 495 470 512 477 505 b 533 466 495 484 513 466 b 595 544 570 466 595 506 b 523 609 595 573 575 609 b 312 394 454 609 373 523 l 306 395 "},"₤":{"x_min":24.578125,"x_max":698.1875,"ha":608,"o":"m 225 118 b 212 116 221 118 216 118 l 219 122 b 338 319 267 154 309 209 l 506 319 l 516 373 l 350 373 l 355 398 l 362 438 l 527 438 l 537 493 l 371 493 l 380 538 b 531 740 400 652 470 740 b 591 709 560 740 577 724 b 634 684 603 695 614 684 b 698 737 664 684 692 704 l 698 744 b 603 798 698 784 632 798 b 414 726 532 798 469 773 b 271 493 335 659 294 593 l 144 493 l 135 438 l 262 438 l 250 373 l 123 373 l 114 319 l 239 319 b 131 106 221 243 192 162 l 106 86 b 24 9 66 66 30 40 l 24 5 b 56 -23 24 -9 38 -23 b 119 27 80 -23 113 -8 b 184 63 121 41 139 63 b 281 27 220 63 249 47 b 405 -16 316 5 353 -16 b 607 99 502 -16 571 31 l 600 108 b 441 52 559 62 480 52 b 366 79 405 52 385 63 b 225 118 339 98 306 118 "},"¿":{"x_min":29.3125,"x_max":502.09375,"ha":563,"o":"m 395 -188 b 247 -268 389 -230 326 -268 b 134 -130 177 -268 134 -205 b 137 -94 134 -118 136 -106 b 250 66 148 -29 186 15 b 381 290 356 148 371 230 l 392 354 b 379 368 395 363 389 368 b 359 354 368 368 361 363 l 348 293 b 304 191 343 259 327 226 b 219 122 286 168 255 145 b 33 -100 145 72 52 9 b 29 -143 32 -115 29 -129 b 226 -309 29 -244 101 -309 b 408 -255 300 -309 361 -290 b 500 -130 456 -222 490 -183 b 502 -115 500 -125 502 -119 b 454 -70 502 -79 474 -70 b 390 -119 428 -70 396 -87 b 393 -152 387 -137 389 -144 b 395 -188 397 -159 400 -168 m 485 551 b 486 565 485 555 486 559 b 424 625 486 598 460 625 b 336 551 383 625 344 591 b 334 538 336 547 334 543 b 397 477 334 504 361 477 b 485 551 438 477 478 511 "},"ý":{"x_min":18.203125,"x_max":707.09375,"ha":660,"o":"m 594 926 l 455 761 b 432 722 440 743 434 737 b 447 704 429 712 437 704 b 494 730 457 704 469 709 l 684 881 l 683 897 b 614 929 658 927 622 929 b 594 926 607 929 598 927 m 277 495 b 229 533 270 520 247 533 b 161 511 200 533 169 511 b 141 537 150 511 141 527 b 151 562 141 545 144 554 b 309 605 201 591 261 605 b 379 506 344 605 359 580 b 434 120 414 363 426 250 l 440 119 l 580 359 b 612 456 609 409 612 433 b 582 554 612 486 582 505 b 634 609 582 584 605 609 b 707 527 669 609 707 576 b 626 336 707 488 687 438 l 362 -97 b 101 -316 276 -238 173 -316 b 18 -261 77 -316 18 -305 b 97 -198 18 -238 30 -198 b 129 -212 108 -198 119 -204 b 161 -225 137 -219 147 -225 b 315 -86 180 -225 258 -179 l 361 -11 b 277 495 337 187 323 288 "},"x":{"x_min":62.5,"x_max":744.453125,"ha":660,"o":"m 491 487 l 422 387 l 383 509 b 318 609 358 583 352 609 b 159 566 269 609 209 595 b 150 541 152 558 150 550 b 169 518 150 531 158 518 b 237 541 177 518 208 541 b 279 511 255 541 270 536 l 351 281 l 231 101 b 193 75 216 80 202 75 b 155 83 181 75 166 77 b 115 91 143 88 129 91 b 62 38 84 91 62 69 b 143 -13 62 2 111 -13 b 284 94 190 -13 225 6 l 370 222 l 420 63 b 500 -13 437 8 452 -13 b 652 84 548 -13 609 12 b 619 111 647 100 634 111 b 545 54 583 65 561 54 b 512 105 533 54 523 72 l 441 329 l 547 484 b 612 522 568 516 602 522 b 654 508 623 522 641 518 b 700 494 663 500 686 494 b 744 554 719 494 744 522 b 675 609 744 588 706 609 b 491 487 605 609 559 584 "},"è":{"x_min":115.203125,"x_max":597.09375,"ha":564,"o":"m 231 276 b 597 512 594 347 597 459 b 459 609 597 561 572 609 b 115 197 222 609 115 373 b 286 -13 115 79 151 -13 b 556 150 379 -13 474 44 b 524 172 549 165 541 172 b 336 69 445 91 402 69 b 230 229 273 69 230 102 b 231 276 230 236 230 265 m 499 513 b 241 329 499 388 347 343 b 427 566 290 525 369 566 b 499 513 477 566 499 554 m 466 931 b 445 934 461 933 452 934 b 348 902 398 934 362 911 l 342 887 l 470 736 b 505 708 488 715 497 708 b 529 723 516 708 527 716 b 527 756 530 733 531 743 l 466 931 "},"º":{"x_min":167.1875,"x_max":554.578125,"ha":485,"o":"m 383 751 b 466 581 452 751 487 693 b 343 459 447 481 382 459 b 252 609 259 459 239 541 b 383 751 266 684 314 751 m 170 595 b 320 420 150 495 218 420 b 550 604 451 420 530 509 b 398 786 568 697 534 786 b 170 595 279 786 193 713 "},"Ø":{"x_min":97.140625,"x_max":1043.3125,"ha":928,"o":"m 843 684 b 857 569 851 650 857 612 b 843 430 857 526 853 480 b 495 33 794 181 648 33 b 309 125 422 33 355 65 l 843 684 m 605 865 b 823 736 704 865 782 822 l 283 169 b 247 337 259 215 247 270 b 259 452 247 373 251 412 b 605 865 315 744 484 865 m 1009 929 l 891 806 b 632 912 829 875 739 912 b 131 429 394 912 184 701 b 120 325 123 393 120 358 b 204 87 120 226 151 144 l 97 -26 l 133 -61 l 241 52 b 458 -15 298 9 373 -15 b 969 455 714 -15 915 177 b 980 558 976 491 980 526 b 922 768 980 640 959 711 l 1043 894 l 1009 929 "},"÷":{"x_min":161.109375,"x_max":726.390625,"ha":732,"o":"m 726 373 l 177 373 l 161 305 l 711 305 l 726 373 m 419 552 b 473 500 419 522 440 500 b 559 583 513 500 559 537 b 505 637 559 613 537 637 b 419 552 459 637 419 595 m 319 101 b 373 48 319 70 341 48 b 459 131 413 48 459 84 b 405 184 459 162 437 184 b 319 101 359 184 319 143 "},"h":{"x_min":123.609375,"x_max":733.328125,"ha":721,"o":"m 243 101 l 297 331 b 525 527 384 445 475 527 b 573 476 554 527 573 519 b 559 383 573 456 570 430 l 506 161 b 483 33 495 116 483 59 b 540 -12 483 6 498 -12 b 733 116 606 -12 669 34 b 701 140 729 129 720 140 b 611 70 665 98 625 70 b 597 94 600 70 597 77 b 612 173 597 106 604 137 l 665 394 b 683 500 676 443 683 475 b 591 611 683 583 645 611 b 319 433 519 611 445 581 l 404 811 b 438 956 423 900 438 956 b 422 970 438 966 434 970 b 227 934 384 956 284 938 l 223 901 b 230 894 223 897 225 894 l 273 891 b 302 852 291 891 302 883 b 293 783 302 837 298 812 l 140 101 b 123 25 134 73 123 38 b 180 -12 123 1 136 -12 b 243 101 233 -12 231 48 "},".":{"x_min":87.5,"x_max":237.5,"ha":304,"o":"m 173 131 b 87 48 123 131 87 86 b 151 -15 87 12 115 -15 b 237 70 200 -15 237 29 b 173 131 237 105 209 131 "},"₱":{"x_min":28.671875,"x_max":716.390625,"ha":608,"o":"m 716 665 l 660 665 b 446 816 653 735 608 816 b 309 810 417 816 374 815 b 170 803 248 808 188 803 l 164 780 b 173 771 164 776 164 771 b 205 773 178 771 195 773 b 252 733 224 773 252 767 b 250 717 252 728 252 723 l 241 665 l 155 665 l 145 609 l 231 609 l 220 545 l 134 545 l 124 491 l 210 491 l 139 89 b 62 35 134 54 113 35 l 43 35 b 31 25 37 35 32 30 l 28 1 l 30 -1 b 177 1 30 -1 132 1 b 334 -1 225 1 334 -1 l 337 1 l 341 25 b 332 35 342 30 338 35 l 299 35 b 239 73 257 35 239 47 b 241 89 239 79 239 83 l 289 365 b 349 351 303 356 317 351 b 613 491 484 351 567 416 l 685 491 l 695 545 l 640 545 b 658 608 649 566 655 587 l 658 609 l 706 609 l 716 665 m 563 665 l 342 665 l 359 758 b 431 774 381 766 409 774 b 563 665 493 774 556 753 m 562 609 b 557 584 560 602 559 594 b 549 545 556 570 552 558 l 321 545 l 332 609 l 562 609 m 527 491 b 350 392 491 423 431 392 b 295 399 324 392 309 396 l 312 491 l 527 491 "},";":{"x_min":42.234375,"x_max":323.609375,"ha":304,"o":"m 259 565 b 173 482 209 565 173 519 b 237 418 173 446 201 418 b 323 504 286 418 323 462 b 259 565 323 539 295 565 m 98 62 b 145 5 98 29 119 12 b 188 -30 168 0 188 -5 b 43 -151 188 -69 116 -134 b 55 -183 40 -163 44 -174 b 255 43 216 -153 255 -28 b 180 132 255 98 223 132 b 98 62 138 132 98 105 "},"f":{"x_min":-109.71875,"x_max":726.390625,"ha":436,"o":"m 261 541 b 204 195 233 383 218 300 b 108 -243 186 59 159 -163 b 45 -284 93 -268 66 -284 b 6 -255 23 -284 16 -272 b -58 -216 -5 -238 -31 -216 b -109 -266 -95 -216 -109 -243 b 19 -330 -109 -298 -75 -330 b 180 -243 76 -330 137 -302 b 302 180 218 -190 250 -83 b 369 518 325 288 348 401 l 373 541 l 502 541 b 538 558 515 541 536 547 b 545 588 538 558 545 587 b 536 595 545 593 543 595 l 383 595 l 398 675 b 440 812 411 726 423 775 b 555 923 475 898 531 923 b 608 887 587 923 602 915 b 673 818 613 856 626 818 b 726 865 715 818 726 852 b 566 969 726 920 665 969 b 384 880 527 969 441 948 b 275 595 336 823 300 715 l 183 591 b 144 568 156 590 147 579 b 138 544 143 563 138 547 b 147 541 138 541 143 541 l 261 541 "},"A":{"x_min":2.78125,"x_max":925.21875,"ha":926,"o":"m 223 109 l 340 311 b 391 334 350 329 359 334 l 669 334 l 704 100 b 704 86 704 94 704 90 b 637 40 704 56 681 43 l 598 37 b 587 26 593 37 588 33 l 581 0 l 583 -2 b 761 0 633 -1 709 0 b 916 -2 815 0 868 -1 l 919 0 l 925 26 b 913 37 926 33 920 37 l 900 38 b 816 119 847 44 825 65 l 688 872 b 661 913 684 898 680 913 b 606 863 641 913 629 900 l 169 141 b 20 37 116 55 79 41 b 8 26 13 37 9 33 l 2 0 l 4 -2 b 127 0 54 -1 76 0 b 301 -2 181 0 252 -1 l 305 0 l 309 26 b 301 37 311 33 306 37 l 263 40 b 212 76 229 43 212 56 b 223 109 212 86 216 97 m 426 393 b 393 401 404 393 393 394 b 397 411 393 404 394 406 l 598 763 l 601 763 l 658 393 l 426 393 "},"6":{"x_min":113.890625,"x_max":677.78125,"ha":608,"o":"m 609 291 b 418 470 609 366 579 470 b 243 402 365 470 283 441 b 420 665 280 513 344 601 b 675 759 500 729 581 751 l 677 802 b 331 668 540 795 438 758 b 113 208 119 487 113 254 b 316 -16 113 26 229 -16 b 609 291 522 -16 609 172 m 338 23 b 211 204 281 23 211 62 b 231 363 211 268 223 331 b 381 426 298 423 352 426 b 506 275 487 426 506 343 b 338 23 506 172 447 23 "},"O":{"x_min":120.828125,"x_max":980.5625,"ha":928,"o":"m 970 456 b 980 558 977 491 980 526 b 631 913 980 775 834 913 b 131 430 394 913 184 702 b 120 325 123 393 120 358 b 459 -13 120 113 261 -13 b 970 456 715 -13 916 179 m 605 866 b 856 569 755 866 856 766 b 843 430 856 526 852 480 b 495 33 794 181 648 33 b 247 337 359 33 247 143 b 259 454 247 373 251 412 b 605 866 315 744 484 866 "},"n":{"x_min":123.515625,"x_max":722.125,"ha":719,"o":"m 601 172 l 654 393 b 672 498 665 441 672 473 b 580 609 672 581 634 609 b 320 430 508 609 448 580 l 319 431 l 322 444 b 352 575 334 498 352 551 b 324 605 352 594 342 605 b 149 587 280 605 215 595 b 151 548 140 576 142 561 l 206 544 b 231 516 223 543 231 530 b 219 445 231 502 227 484 l 140 100 b 123 23 134 72 123 37 b 183 -13 123 0 138 -13 b 245 100 236 -13 234 47 l 299 330 b 513 526 387 444 463 526 b 562 476 542 526 562 519 b 544 381 562 456 555 429 l 491 159 b 467 31 480 115 467 58 b 524 -13 467 5 483 -13 b 722 115 591 -13 658 33 b 690 138 717 127 709 138 b 599 69 654 97 613 69 b 586 93 588 69 586 76 b 601 172 586 105 592 136 "},"3":{"x_min":75,"x_max":620.828125,"ha":608,"o":"m 131 115 b 75 64 105 115 75 90 b 247 -16 75 15 172 -16 b 602 316 468 -16 602 161 b 459 479 602 423 526 469 b 620 686 601 559 620 633 b 470 802 620 739 587 802 b 200 623 270 802 200 665 b 231 587 200 611 204 587 b 290 655 268 587 286 630 b 434 759 306 740 401 759 b 527 670 484 759 527 730 b 304 455 527 570 401 470 l 302 414 b 347 419 319 416 333 419 b 497 295 412 419 497 401 b 272 26 497 132 359 26 b 131 115 159 26 195 115 "},"9":{"x_min":77.78125,"x_max":641.671875,"ha":608,"o":"m 145 494 b 337 315 145 419 176 315 b 512 383 390 315 472 344 b 334 120 475 272 409 183 b 80 26 254 55 173 34 l 77 -16 b 423 118 215 -9 316 27 b 641 577 636 298 641 531 b 438 802 641 759 526 802 b 145 494 233 802 145 613 m 416 762 b 544 581 473 762 544 723 b 523 422 544 518 531 454 b 373 359 456 362 402 359 b 248 511 268 359 248 443 b 416 762 248 613 308 762 "},"l":{"x_min":129.171875,"x_max":431.9375,"ha":369,"o":"m 397 811 b 431 956 416 900 431 956 b 415 970 431 966 427 970 b 220 934 377 956 277 938 l 216 901 b 223 894 216 897 218 894 l 266 891 b 295 852 284 891 295 883 b 286 783 295 837 291 812 l 148 166 b 129 50 137 122 129 76 b 187 -12 129 23 141 -12 b 397 130 262 -12 336 23 b 366 154 391 144 384 154 b 254 70 325 104 270 70 b 237 90 243 70 237 79 b 255 177 237 101 243 122 l 397 811 "},"¤":{"x_min":72.296875,"x_max":683.265625,"ha":608,"o":"m 213 416 b 410 599 231 515 315 599 b 540 452 487 599 540 537 b 537 415 540 440 538 427 b 344 230 519 316 440 230 b 209 376 258 230 209 294 b 213 416 209 389 211 402 m 333 171 b 494 223 390 171 442 188 l 545 150 l 605 203 l 544 264 b 620 415 585 309 609 359 b 624 460 623 430 624 445 b 595 565 624 499 615 534 l 683 626 l 638 683 l 560 606 b 419 658 522 640 474 658 b 261 609 365 658 312 641 l 211 679 l 150 624 l 211 567 b 129 415 168 524 140 473 b 125 371 126 399 125 384 b 157 262 125 331 136 295 l 72 202 l 119 146 l 191 221 b 333 171 230 188 277 171 "},"4":{"x_min":96.59375,"x_max":619.4375,"ha":608,"o":"m 456 493 l 412 278 l 193 278 b 558 787 326 439 462 619 b 513 803 541 790 515 803 b 501 796 508 803 505 801 b 100 272 430 682 209 372 b 97 268 98 271 97 269 b 97 265 97 267 95 265 l 108 236 l 116 221 b 126 212 119 215 120 212 l 400 212 l 375 97 b 316 39 365 57 359 39 l 277 39 b 266 29 269 39 266 32 l 261 -1 b 395 1 261 -1 343 1 b 543 -1 452 1 543 -1 l 548 29 b 540 39 550 32 548 39 l 504 39 b 465 69 475 39 465 49 b 468 97 465 78 466 86 l 493 212 l 598 212 l 619 278 l 505 278 l 552 501 b 556 528 555 512 556 521 b 541 544 556 539 552 544 b 475 521 520 544 493 532 b 456 493 462 514 459 503 "},"p":{"x_min":-26.390625,"x_max":706.953125,"ha":679,"o":"m 593 379 b 368 33 593 287 508 33 b 265 92 331 33 294 52 l 356 498 b 484 546 391 520 431 546 b 593 379 579 546 593 447 m 369 561 b 387 644 373 584 387 627 b 329 682 387 668 373 682 b 265 568 276 682 276 619 l 247 486 b 87 345 177 436 126 394 b 130 316 91 324 105 316 b 230 413 161 356 191 381 l 87 -223 b 13 -285 77 -262 58 -278 l -12 -289 b -26 -301 -19 -291 -26 -292 l -26 -327 l -23 -330 b 120 -323 -23 -330 70 -323 b 269 -326 175 -323 269 -326 l 272 -323 l 272 -295 b 263 -284 272 -288 269 -285 l 237 -280 b 191 -223 216 -277 180 -270 l 252 31 b 351 -14 273 9 301 -14 b 706 401 569 -14 706 254 b 529 609 706 518 668 609 b 369 561 458 609 406 583 "},"à":{"x_min":108.625,"x_max":683.40625,"ha":675,"o":"m 500 304 b 280 62 432 179 325 62 b 219 195 233 62 219 118 b 462 566 219 343 335 566 b 548 540 491 566 522 556 b 500 304 548 540 534 393 m 569 601 b 458 609 532 605 514 609 b 108 173 310 609 108 391 b 243 -13 108 95 126 -13 b 478 186 316 -13 394 62 l 480 183 l 462 125 b 448 48 453 93 448 65 b 505 -13 448 22 458 -13 b 683 120 591 -13 647 41 b 651 143 675 131 669 143 b 573 69 613 91 587 69 b 557 88 569 69 557 72 b 570 166 557 101 565 140 l 666 598 b 569 601 633 598 597 594 m 518 931 b 497 934 512 933 504 934 b 400 902 450 934 414 911 l 394 887 l 522 736 b 557 708 540 715 548 708 b 580 723 568 708 579 716 b 579 756 582 733 583 743 l 518 931 "},"Ü":{"x_min":172.359375,"x_max":1042.5,"ha":881,"o":"m 681 981 b 746 916 681 945 710 916 b 811 981 782 916 811 945 b 746 1047 811 1018 782 1047 b 681 981 710 1047 681 1018 m 481 981 b 546 916 481 945 510 916 b 611 981 582 916 611 945 b 546 1047 611 1018 582 1047 b 481 981 510 1047 481 1018 m 424 -13 b 842 409 699 -13 793 162 l 911 768 b 1002 858 920 806 945 854 b 1038 870 1024 859 1035 861 l 1042 895 l 1041 898 b 906 895 991 897 936 895 b 821 898 875 895 855 897 b 796 876 805 898 798 886 b 813 858 793 866 799 861 b 848 750 857 848 856 793 l 777 384 b 464 43 746 229 688 43 b 320 112 400 43 350 72 b 298 373 263 186 281 283 l 375 770 b 448 858 382 809 398 845 b 468 877 459 861 466 863 b 457 898 470 886 468 898 b 346 895 424 897 400 895 b 191 898 295 895 239 897 l 188 895 l 182 870 b 192 858 181 863 185 858 b 271 781 236 854 281 836 l 182 327 b 424 -13 127 44 306 -13 "},"ó":{"x_min":108.703125,"x_max":646.203125,"ha":621,"o":"m 475 925 l 336 759 b 312 720 321 741 315 736 b 328 702 310 711 318 702 b 375 729 337 702 350 708 l 565 880 l 564 895 b 494 927 539 926 503 927 b 475 925 487 927 479 926 m 108 225 b 303 -13 108 151 126 -13 b 430 12 347 -13 389 -8 b 646 384 551 72 646 219 b 450 609 646 484 621 609 b 108 225 218 609 108 391 m 223 236 b 425 563 223 361 267 563 b 505 501 467 563 485 540 b 530 375 522 465 530 416 b 472 122 530 319 518 202 b 337 34 439 63 394 34 b 223 236 297 34 223 90 "}}}
